<svg width="15" height="15" viewBox="0 0 15 15" fill="none" xmlns="http://www.w3.org/2000/svg">
<path d="M7.44531 5.34737C6.15531 5.34737 5.11531 6.39737 5.11531 7.67737C5.11531 8.95737 6.16531 10.0074 7.44531 10.0074C8.72531 10.0074 9.77531 8.95737 9.77531 7.67737C9.77531 6.39737 8.72531 5.34737 7.44531 5.34737ZM14.4453 7.67737C14.4453 6.70737 14.4453 5.75737 14.3953 4.78737C14.3453 3.66737 14.0853 2.66737 13.2653 1.85737C12.4453 1.03737 11.4553 0.777368 10.3353 0.727368C9.36531 0.677368 8.41531 0.677368 7.44531 0.677368C6.47531 0.677368 5.52531 0.677368 4.55531 0.727368C3.43531 0.777368 2.43531 1.03737 1.62531 1.85737C0.805313 2.67737 0.545312 3.66737 0.495312 4.78737C0.445312 5.75737 0.445312 6.70737 0.445312 7.67737C0.445312 8.64737 0.445312 9.59737 0.495312 10.5674C0.545312 11.6874 0.805313 12.6874 1.62531 13.4974C2.44531 14.3174 3.43531 14.5774 4.55531 14.6274C5.52531 14.6774 6.47531 14.6774 7.44531 14.6774C8.41531 14.6774 9.36531 14.6774 10.3353 14.6274C11.4553 14.5774 12.4553 14.3174 13.2653 13.4974C14.0853 12.6774 14.3453 11.6874 14.3953 10.5674C14.4553 9.60737 14.4453 8.64737 14.4453 7.67737ZM7.44531 11.2674C5.45531 11.2674 3.85531 9.66737 3.85531 7.67737C3.85531 5.68737 5.45531 4.08737 7.44531 4.08737C9.43531 4.08737 11.0353 5.68737 11.0353 7.67737C11.0353 9.66737 9.43531 11.2674 7.44531 11.2674ZM11.1853 4.77737C10.7253 4.77737 10.3453 4.40737 10.3453 3.93737C10.3453 3.46737 10.7153 3.09737 11.1853 3.09737C11.6553 3.09737 12.0253 3.46737 12.0253 3.93737C12.0278 4.0469 12.0078 4.15579 11.9666 4.25728C11.9253 4.35877 11.8636 4.4507 11.7853 4.52737C11.7086 4.60564 11.6167 4.66733 11.5152 4.70862C11.4137 4.7499 11.3048 4.7699 11.1953 4.76737L11.1853 4.77737Z" fill="white"/>
</svg>
