<svg width="16" height="15" viewBox="0 0 16 15" fill="none" xmlns="http://www.w3.org/2000/svg">
<path d="M13.4812 0.677368C13.8958 0.677368 14.2935 0.842075 14.5867 1.13526C14.8798 1.42844 15.0446 1.82608 15.0446 2.2407V13.184C15.0446 13.5986 14.8798 13.9962 14.5867 14.2894C14.2935 14.5826 13.8958 14.7473 13.4812 14.7473H2.53794C2.12332 14.7473 1.72568 14.5826 1.4325 14.2894C1.13932 13.9962 0.974609 13.5986 0.974609 13.184V2.2407C0.974609 1.82608 1.13932 1.42844 1.4325 1.13526C1.72568 0.842075 2.12332 0.677368 2.53794 0.677368H13.4812ZM13.0904 12.7932V8.65034C13.0904 7.97451 12.8219 7.32636 12.344 6.84847C11.8662 6.37059 11.218 6.10211 10.5422 6.10211C9.87776 6.10211 9.10391 6.50858 8.72871 7.11828V6.25063H6.54787V12.7932H8.72871V8.93955C8.72871 8.33767 9.21334 7.84522 9.81523 7.84522C10.1055 7.84522 10.3838 7.96052 10.589 8.16575C10.7943 8.37097 10.9096 8.64932 10.9096 8.93955V12.7932H13.0904ZM4.00746 5.02342C4.35575 5.02342 4.68976 4.88506 4.93603 4.63879C5.18231 4.39252 5.32066 4.0585 5.32066 3.71022C5.32066 2.98328 4.73441 2.38921 4.00746 2.38921C3.65711 2.38921 3.32111 2.52839 3.07337 2.77613C2.82563 3.02386 2.68645 3.35987 2.68645 3.71022C2.68645 4.43717 3.28052 5.02342 4.00746 5.02342ZM5.09398 12.7932V6.25063H2.92877V12.7932H5.09398Z" fill="white"/>
</svg>
