<svg width="13" height="15" viewBox="0 0 13 15" fill="none" xmlns="http://www.w3.org/2000/svg">
<path d="M12.6534 13.1781L8.45343 6.58211L12.5653 2.05923C12.7095 1.89659 12.7839 1.68363 12.7722 1.46654C12.7605 1.24944 12.6638 1.04569 12.5029 0.899473C12.342 0.753253 12.1299 0.676344 11.9127 0.685419C11.6955 0.694495 11.4906 0.788824 11.3425 0.947956L7.53701 5.13691L4.94198 1.06018C4.8674 0.942927 4.76445 0.846374 4.64266 0.77946C4.52087 0.712546 4.38416 0.677432 4.2452 0.677368H0.940307C0.792302 0.677436 0.647033 0.71726 0.519684 0.792676C0.392334 0.868093 0.287581 0.976333 0.216374 1.10608C0.145166 1.23583 0.110119 1.38233 0.114896 1.53025C0.119672 1.67818 0.164097 1.82211 0.243526 1.947L4.44349 8.54301L0.328902 13.0659C0.254404 13.1459 0.196531 13.2399 0.158636 13.3425C0.120741 13.445 0.103578 13.5541 0.108142 13.6633C0.112706 13.7726 0.138907 13.8798 0.185224 13.9789C0.231542 14.0779 0.297056 14.1668 0.37797 14.2403C0.458883 14.3138 0.553587 14.3706 0.656592 14.4072C0.759596 14.4439 0.868853 14.4598 0.97803 14.4539C1.08721 14.448 1.19413 14.4205 1.29261 14.373C1.39109 14.3255 1.47915 14.2589 1.55171 14.1772L5.35991 9.98821L7.95494 14.0649C8.02952 14.1822 8.13246 14.2787 8.25426 14.3457C8.37605 14.4126 8.51275 14.4477 8.65172 14.4477H11.9566C12.1046 14.4477 12.2499 14.4079 12.3772 14.3324C12.5046 14.257 12.6093 14.1488 12.6805 14.019C12.7518 13.8893 12.7868 13.7428 12.782 13.5949C12.7772 13.4469 12.7328 13.303 12.6534 13.1781ZM9.10545 12.7953L2.44541 2.32981H3.79146L10.4515 12.7953H9.10545Z" fill="white"/>
</svg>
