<svg width="17" height="12" viewBox="0 0 17 12" fill="none" xmlns="http://www.w3.org/2000/svg">
<path d="M8.41623 0.275879H8.50523C9.32723 0.278879 13.4922 0.308879 14.6152 0.610879C14.9547 0.703048 15.2641 0.882701 15.5124 1.13189C15.7607 1.38107 15.9393 1.69106 16.0302 2.03088C16.1312 2.41088 16.2022 2.91388 16.2502 3.43288L16.2602 3.53688L16.2822 3.79688L16.2902 3.90088C16.3552 4.81488 16.3632 5.67088 16.3642 5.85788V5.93288C16.3632 6.12688 16.3542 7.04088 16.2822 7.99288L16.2742 8.09788L16.2652 8.20188C16.2152 8.77388 16.1412 9.34188 16.0302 9.75988C15.9393 10.0997 15.7607 10.4097 15.5124 10.6589C15.2641 10.9081 14.9547 11.0877 14.6152 11.1799C13.4552 11.4919 9.04623 11.5139 8.43523 11.5149H8.29323C7.98423 11.5149 6.70623 11.5089 5.36623 11.4629L5.19623 11.4569L5.10923 11.4529L4.93823 11.4459L4.76723 11.4389C3.65723 11.3899 2.60023 11.3109 2.11323 11.1789C1.77386 11.0868 1.46458 10.9073 1.21629 10.6583C0.967987 10.4093 0.789358 10.0995 0.698234 9.75988C0.587234 9.34288 0.513234 8.77388 0.463234 8.20188L0.455234 8.09688L0.447234 7.99288C0.397598 7.31529 0.37025 6.63626 0.365234 5.95688L0.365234 5.83388C0.367234 5.61888 0.375234 4.87588 0.429234 4.05588L0.436234 3.95288L0.439234 3.90088L0.447234 3.79688L0.469234 3.53688L0.479234 3.43288C0.527234 2.91388 0.598234 2.40988 0.699234 2.03088C0.790205 1.69106 0.968766 1.38107 1.21707 1.13189C1.46538 0.882701 1.77474 0.703048 2.11423 0.610879C2.60123 0.480879 3.65823 0.400879 4.76823 0.350879L4.93823 0.343879L5.11023 0.337879L5.19623 0.334879L5.36723 0.327879C6.31894 0.297283 7.27104 0.280281 8.22323 0.276879L8.41623 0.275879ZM6.76523 3.48588V8.30388L10.9222 5.89588L6.76523 3.48588Z" fill="white"/>
</svg>
