<svg width="177" height="118" viewBox="0 0 177 118" fill="none" xmlns="http://www.w3.org/2000/svg">
<path d="M11.1691 39.8246C7.81826 39.8246 5.30513 38.5681 3.42027 36.2643C1.53542 33.9606 0.488281 30.6098 0.488281 26.2118C0.488281 21.8138 1.11657 20.9761 2.16371 19.0912C3.21085 16.997 4.67684 15.531 6.35227 14.4838C8.02769 13.4367 9.91254 12.8084 12.0068 12.8084C14.1011 12.8084 14.9388 13.0178 16.1954 13.6461C17.452 14.2744 18.4991 14.9027 19.9651 15.9498V11.133V0.452148H22.2688V38.9869H20.1745V35.6361H19.7557C18.7085 36.6832 17.452 37.5209 15.986 38.3586C14.52 39.1963 13.054 39.6152 11.3785 39.6152L11.1691 39.8246ZM11.3785 37.7303C12.8445 37.7303 14.1011 37.3115 15.5671 36.6832C16.8237 36.0549 18.2897 35.0078 19.5462 33.5418V18.2535C18.2897 16.997 16.8237 16.1592 15.7765 15.7404C14.52 15.3215 13.2634 14.9027 12.0068 14.9027C10.7503 14.9027 8.65597 15.3215 7.39941 16.3687C6.14284 17.4158 4.88627 18.6724 4.25799 20.5572C3.42027 22.2327 3.00142 24.1175 3.00142 26.4212C3.00142 29.7721 3.6297 32.4946 5.0957 34.5889C6.56169 36.6832 8.65597 37.7303 11.3785 37.7303Z" fill="white"/>
<path d="M42.5843 39.8246C40.49 39.8246 38.3958 39.1963 36.5109 38.1491C34.6261 37.102 33.3695 35.636 32.1129 33.5417C31.0658 31.4474 30.4375 29.1437 30.4375 26.4212C30.4375 23.6986 31.0658 21.1855 32.1129 19.0912C33.1601 16.9969 34.6261 15.5309 36.3015 14.4838C37.9769 13.4366 39.8618 12.8083 41.7466 12.8083C44.888 12.8083 47.1917 13.8555 49.0766 15.9498C50.752 18.0441 51.7992 20.976 51.7992 24.7457C51.7992 28.5155 51.7992 25.374 51.7992 25.7929C51.7992 26.2117 51.7992 26.4212 51.7992 26.84H33.3695C33.3695 28.9343 33.7883 30.8192 34.6261 32.4946C35.4638 34.17 36.5109 35.4266 37.9769 36.4737C39.4429 37.5209 41.1183 37.9397 43.0032 37.9397C44.888 37.9397 45.7257 37.7303 46.7729 37.3114C47.82 36.8926 48.8672 36.2643 49.9143 35.636L50.9614 37.5209C49.9143 38.1491 48.8672 38.7774 47.6106 39.1963C46.354 39.8246 44.888 40.034 42.7938 40.034L42.5843 39.8246ZM33.1601 24.7457H49.4954C49.4954 21.3949 48.8672 19.0912 47.4012 17.4158C46.1446 15.7403 44.2597 14.9026 41.956 14.9026C39.6523 14.9026 39.024 15.3215 37.7675 16.1592C36.5109 16.9969 35.4638 18.044 34.6261 19.51C33.7883 20.976 33.1601 22.6515 33.1601 24.7457Z" fill="white"/>
<path d="M59.7578 39.1963V13.4366H61.8521V17.4158H62.271C63.3181 16.1592 64.7841 14.9026 66.0407 14.0649C67.5066 13.2272 68.9726 12.8083 70.2292 12.8083C72.3235 12.8083 73.7895 13.2272 75.0461 14.2743C76.0932 15.3215 76.9309 16.5781 77.3498 18.0441C78.8158 16.3686 80.2818 15.1121 81.7478 14.2743C83.2138 13.2272 84.6798 12.8083 86.1457 12.8083C91.3814 12.8083 93.8946 16.1592 93.8946 22.6515V39.1963H91.3814V23.0703C91.3814 17.6252 89.4966 15.1121 85.7269 15.1121C81.9572 15.1121 80.91 16.7875 77.9781 19.9289V39.4057H75.6743V23.2798C75.6743 20.5572 75.2555 18.4629 74.2083 17.2063C73.3706 15.9498 71.9046 15.3215 69.8104 15.3215C67.7161 15.3215 64.9935 16.9969 62.0615 20.1383V39.6151H59.7578V39.1963Z" fill="white"/>
<path d="M114.207 39.8246C112.113 39.8246 110.019 39.1963 108.134 38.1491C106.249 37.102 104.993 35.636 103.736 33.5417C102.689 31.4474 102.061 29.1437 102.061 26.4212C102.061 23.6986 102.689 21.1855 103.736 19.0912C104.783 16.9969 106.249 15.5309 107.925 14.4838C109.6 13.4366 111.485 12.8083 113.37 12.8083C116.511 12.8083 118.815 13.8555 120.7 15.9498C122.375 18.0441 123.422 20.976 123.422 24.7457C123.422 28.5155 123.422 25.374 123.422 25.7929C123.422 26.2117 123.422 26.4212 123.422 26.84H104.993C104.993 28.9343 105.411 30.8192 106.249 32.4946C107.087 34.17 108.134 35.4266 109.6 36.4737C111.066 37.5209 112.741 37.9397 114.626 37.9397C116.511 37.9397 117.349 37.7303 118.396 37.3114C119.443 36.8926 120.49 36.2643 121.537 35.636L122.584 37.5209C121.537 38.1491 120.49 38.7774 119.234 39.1963C117.977 39.8246 116.511 40.034 114.417 40.034L114.207 39.8246ZM104.574 24.7457H120.909C120.909 21.3949 120.281 19.0912 118.815 17.4158C117.558 15.7403 115.673 14.9026 113.37 14.9026C111.066 14.9026 110.438 15.3215 109.181 16.1592C107.925 16.9969 106.877 18.044 106.04 19.51C105.202 20.976 104.574 22.6515 104.574 24.7457Z" fill="white"/>
<path d="M131.381 39.1963V13.4366H133.475V17.4158H133.894C135.151 16.1592 136.617 14.9026 138.083 14.0649C139.549 13.2272 141.015 12.8083 142.899 12.8083C145.622 12.8083 147.507 13.6461 148.763 15.3215C150.02 16.9969 150.648 19.51 150.648 22.6515V39.1963H148.345V23.0703C148.345 20.3478 147.926 18.2535 146.879 16.9969C146.041 15.7403 144.365 15.1121 142.271 15.1121C140.177 15.1121 139.339 15.5309 138.083 16.3686C136.826 17.2063 135.36 18.4629 133.894 19.9289V39.4057H131.59L131.381 39.1963Z" fill="white"/>
<path d="M157.35 39.1964V37.9398L172.638 15.531H159.025V13.4368H175.57V14.6933L160.491 37.1021H176.198V39.1964H157.35Z" fill="white"/>
<path d="M34.6248 117.104C40.1767 117.104 44.6774 112.603 44.6774 107.051C44.6774 101.499 40.1767 96.9988 34.6248 96.9988C29.0729 96.9988 24.5723 101.499 24.5723 107.051C24.5723 112.603 29.0729 117.104 34.6248 117.104Z" fill="white"/>
<path d="M58.5018 117.104C64.0536 117.104 68.5543 112.603 68.5543 107.051C68.5543 101.499 64.0536 96.9988 58.5018 96.9988C52.9499 96.9988 48.4492 101.499 48.4492 107.051C48.4492 112.603 52.9499 117.104 58.5018 117.104Z" fill="white"/>
<path d="M82.5857 117.104C88.1376 117.104 92.6383 112.603 92.6383 107.051C92.6383 101.499 88.1376 96.9988 82.5857 96.9988C77.0339 96.9988 72.5332 101.499 72.5332 107.051C72.5332 112.603 77.0339 117.104 82.5857 117.104Z" fill="white"/>
<path d="M10.5408 117.104C16.0927 117.104 20.5934 112.603 20.5934 107.051C20.5934 101.499 16.0927 96.9988 10.5408 96.9988C4.98896 96.9988 0.488281 101.499 0.488281 107.051C0.488281 112.603 4.98896 117.104 10.5408 117.104Z" fill="white"/>
<path d="M7.39941 83.8048L0.488281 58.0452H6.56169L9.70311 71.4486C9.91254 72.7051 10.122 73.9617 10.3314 75.0088C10.3314 76.2654 10.7503 77.522 10.9597 78.7785C11.1691 77.522 11.3785 76.2654 11.7974 75.0088C12.0068 73.7523 12.4257 72.4957 12.6351 71.4486L15.986 58.0452H21.4311L24.7819 71.4486C25.2008 72.7051 25.4102 73.9617 25.6196 75.0088C25.8291 76.2654 26.2479 77.522 26.4574 78.7785C26.6668 77.522 26.8762 76.2654 27.0856 75.0088C27.0856 73.7523 27.5045 72.4957 27.7139 71.4486L30.8553 58.0452H36.5099L30.0176 83.8048H22.8971L19.9651 71.8674C19.7557 70.6108 19.3368 69.3543 19.1274 68.3071C18.9179 67.0506 18.7085 65.794 18.2897 64.5374C18.0802 65.794 17.8708 67.26 17.6614 68.3071C17.452 69.5637 17.2425 70.8203 16.8237 71.8674L13.8917 83.8048H6.98055H7.39941Z" fill="white"/>
<path d="M53.4726 84.4332C51.3783 84.4332 49.284 83.8049 47.6086 82.7577C45.7237 81.7106 44.2577 80.2446 43.2106 78.1503C42.1634 76.056 41.5352 73.7523 41.5352 70.8203C41.5352 67.8883 42.1634 65.5846 43.2106 63.4904C44.2577 61.3961 45.9331 59.9301 47.6086 58.8829C49.4934 57.8358 51.3783 57.2075 53.4726 57.2075C55.5668 57.2075 57.6611 57.8358 59.546 58.8829C61.4308 59.9301 62.8968 61.3961 63.944 63.4904C64.9911 65.5846 65.6194 67.8883 65.6194 70.8203C65.6194 73.7523 64.9911 76.056 63.944 78.1503C62.6874 80.2446 61.2214 81.7106 59.546 82.7577C57.6611 83.8049 55.7763 84.4332 53.4726 84.4332ZM53.4726 79.4069C55.3574 79.4069 56.8234 78.5692 57.8705 77.1032C58.9177 75.6372 59.546 73.5429 59.546 71.0298C59.546 68.5166 58.9177 66.4224 57.8705 64.7469C56.8234 63.2809 55.3574 62.4432 53.4726 62.4432C51.5877 62.4432 50.1217 63.2809 49.0746 64.7469C48.0274 66.2129 47.3991 68.3072 47.3991 71.0298C47.3991 73.7523 48.0274 75.6372 49.0746 77.1032C50.1217 78.5692 51.5877 79.4069 53.4726 79.4069Z" fill="white"/>
<path d="M72.7426 83.8048V58.0452H77.7689L78.1878 62.6526C79.0255 60.9772 80.282 59.7206 81.5386 58.8829C82.7952 58.0452 84.0517 57.6263 85.5177 57.6263C86.9837 57.6263 87.612 57.6263 88.4497 58.0452L87.4026 63.2809C86.9837 63.2809 86.5649 63.0715 86.146 62.862C85.7272 62.862 85.3083 62.862 84.68 62.862C83.6329 62.862 82.5857 63.2809 81.5386 64.1186C80.4915 64.9563 79.4443 66.2129 78.6066 68.3072V84.0143H72.5332L72.7426 83.8048Z" fill="white"/>
<path d="M99.1296 84.4332C97.0353 84.4332 95.5693 83.8049 94.5222 82.5483C93.6845 81.2917 93.2656 79.4069 93.2656 77.3126V46.9456H99.339V77.522C99.339 78.1503 99.339 78.7786 99.7579 78.988C99.9673 79.1975 100.386 79.4069 100.596 79.4069C100.805 79.4069 100.805 79.4069 101.014 79.4069C101.014 79.4069 101.224 79.4069 101.643 79.4069L102.48 83.8049C102.062 83.8049 101.643 84.0143 101.224 84.2237C100.596 84.2237 99.9673 84.2237 99.339 84.2237L99.1296 84.4332Z" fill="white"/>
<path d="M117.56 84.4332C114.418 84.4332 111.696 83.1766 109.811 80.8729C107.926 78.5692 106.879 75.2184 106.879 71.0298C106.879 66.8413 107.298 65.7941 108.345 63.9093C109.392 61.815 110.649 60.349 112.324 59.3019C113.999 58.2547 115.675 57.6264 117.56 57.6264C119.445 57.6264 120.282 57.8359 121.329 58.4641C122.377 58.883 123.424 59.7207 124.261 60.5584V56.3699C124.052 56.3699 124.052 47.155 124.052 47.155H130.125V84.0144H125.099L124.68 81.2918C123.843 82.1295 122.586 82.9672 121.329 83.5955C120.073 84.2238 118.816 84.6426 117.35 84.6426L117.56 84.4332ZM119.026 79.4069C120.911 79.4069 122.795 78.3598 124.471 76.475V64.5376C123.633 63.6998 122.795 63.281 121.958 62.8621C121.12 62.4433 120.282 62.4433 119.445 62.4433C117.769 62.4433 116.303 63.281 115.256 64.747C113.999 66.213 113.581 68.3073 113.581 71.0298C113.581 73.7524 113.999 75.8467 115.047 77.3127C116.094 78.7787 117.56 79.4069 119.235 79.4069H119.026Z" fill="white"/>
</svg>
