<?xml version="1.0" encoding="UTF-8"?>
<svg xmlns="http://www.w3.org/2000/svg" version="1.1" viewBox="0 0 44.6 44.6">
  <defs>
    <style>
      .cls-1 {
        fill: #8456ba;
      }

      .cls-2 {
        fill: #fff;
      }
    </style>
  </defs>
  <!-- Generator: Adobe Illustrator 28.7.1, SVG Export Plug-In . SVG Version: 1.2.0 Build 142)  -->
  <g>
    <g id="Ebene_1">
      <g>
        <path class="cls-1" d="M22.3,0C10,0,0,10,0,22.3s10,22.3,22.3,22.3,22.3-10,22.3-22.3c0-12.3-10.1-22.3-22.3-22.3Z"/>
        <path class="cls-2" d="M18.4,27.8c-1.8,0-3.2,1.4-3.2,3.2s1.4,3.2,3.2,3.2,3.2-1.4,3.2-3.2-1.4-3.2-3.2-3.2Z"/>
        <path class="cls-2" d="M26.1,27.8c-1.8,0-3.2,1.4-3.2,3.2s1.4,3.2,3.2,3.2,3.2-1.4,3.2-3.2-1.4-3.2-3.2-3.2Z"/>
        <path class="cls-2" d="M33.7,27.8c-1.8,0-3.2,1.4-3.2,3.2s1.4,3.2,3.2,3.2,3.2-1.4,3.2-3.2-1.4-3.2-3.2-3.2Z"/>
        <path class="cls-2" d="M10.8,27.8c-1.8,0-3.2,1.4-3.2,3.2s1.4,3.2,3.2,3.2,3.2-1.4,3.2-3.2-1.4-3.2-3.2-3.2Z"/>
      </g>
      <g>
        <path class="cls-2" d="M18.7,22.3c-1.2,0-2.2-.4-3-1.3-.7-.9-1.1-2.2-1.1-3.8s.2-2,.6-2.8c.4-.8.9-1.4,1.6-1.8.7-.4,1.4-.6,2.2-.6s1.1.1,1.6.3c.4.2.9.5,1.4.9v-5.9h.9v14.7h-.8v-1.3h-.2c-.4.4-.9.7-1.4,1.1-.5.4-1.1.5-1.8.5ZM18.9,21.5c.5,0,1.1,0,1.6-.4.5-.3,1-.7,1.5-1.2v-5.8c-.5-.5-1-.8-1.5-1s-.9-.3-1.4-.3-1.2.2-1.8.6c-.5.4-.9.9-1.2,1.6-.3.7-.5,1.4-.5,2.2,0,1.3.3,2.3.8,3.1.6.8,1.4,1.2,2.5,1.2Z"/>
        <path class="cls-2" d="M26.2,26c-.4,0-.7,0-.9,0-.3,0-.5,0-.7-.2l.4-1.7c0,0,.3,0,.4,0s.3,0,.4,0c.4,0,.7,0,.9-.4.2-.3.2-.7.2-1.3v-10.2h2.3v10.2c0,.7,0,1.3-.3,1.8s-.5,1-1,1.3c-.4.3-1,.5-1.7.4ZM28.2,10.5c-.4,0-.7-.1-1-.4-.3-.2-.4-.6-.4-1s0-.7.4-.9c.3-.2.6-.4,1-.4s.7.1,1,.4c.3.2.4.6.4.9s0,.7-.4,1c-.3.3-.6.4-1,.4Z"/>
      </g>
    </g>
  </g>
</svg>