<?xml version="1.0" encoding="UTF-8"?>
<svg xmlns="http://www.w3.org/2000/svg" version="1.1" viewBox="0 0 83.9 55.6">
  <defs>
    <style>
      .cls-1 {
        fill: #fff;
      }
    </style>
  </defs>
  <!-- Generator: Adobe Illustrator 28.7.1, SVG Export Plug-In . SVG Version: 1.2.0 Build 142)  -->
  <g>
    <g id="Ebene_1">
      <g>
        <g>
          <path class="cls-1" d="M5.1,18.7c-1.6,0-2.8-.6-3.7-1.7-.9-1.1-1.4-2.7-1.4-4.8s.3-2.5.8-3.4c.5-1,1.2-1.7,2-2.2.8-.5,1.7-.8,2.7-.8s1.4.1,2,.4c.6.3,1.1.6,1.8,1.1v-2.3c0,0,0-5.1,0-5.1h1.1v18.4h-1v-1.6h-.2c-.5.5-1.1.9-1.8,1.3-.7.4-1.4.6-2.2.6ZM5.2,17.7c.7,0,1.3-.2,2-.5.6-.3,1.3-.8,1.9-1.5v-7.3c-.6-.6-1.3-1-1.8-1.2-.6-.2-1.2-.4-1.8-.4s-1.6.2-2.2.7c-.6.5-1.2,1.1-1.5,2-.4.8-.6,1.7-.6,2.8,0,1.6.3,2.9,1,3.9.7,1,1.7,1.5,3,1.5Z"/>
          <path class="cls-1" d="M20.1,18.7c-1,0-2-.3-2.9-.8-.9-.5-1.5-1.2-2.1-2.2-.5-1-.8-2.1-.8-3.4s.3-2.5.8-3.5c.5-1,1.2-1.7,2-2.2.8-.5,1.7-.8,2.6-.8,1.5,0,2.6.5,3.5,1.5.8,1,1.3,2.4,1.3,4.2s0,.3,0,.5c0,.2,0,.3,0,.5h-8.8c0,1,.2,1.9.6,2.7.4.8.9,1.4,1.6,1.9.7.5,1.5.7,2.4.7s1.3-.1,1.8-.3c.5-.2,1-.5,1.5-.8l.5.9c-.5.3-1,.6-1.6.8-.6.3-1.3.4-2.3.4ZM15.6,11.5h7.8c0-1.6-.3-2.7-1-3.5-.6-.8-1.5-1.2-2.6-1.2s-1.4.2-2,.6c-.6.4-1.1.9-1.5,1.6-.4.7-.7,1.5-.7,2.5Z"/>
          <path class="cls-1" d="M28.3,18.4V6.1h1v1.9h.2c.5-.6,1.2-1.2,1.8-1.6.7-.4,1.4-.6,2-.6,1,0,1.7.2,2.3.7.5.5.9,1.1,1.1,1.8.7-.8,1.4-1.4,2.1-1.8.7-.5,1.4-.7,2.1-.7,2.5,0,3.7,1.6,3.7,4.7v7.9h-1.2v-7.7c0-2.6-.9-3.8-2.7-3.8s-2.3.8-3.7,2.3v9.3h-1.1v-7.7c0-1.3-.2-2.3-.7-2.9-.4-.6-1.1-.9-2.1-.9s-2.3.8-3.7,2.3v9.3h-1.1Z"/>
          <path class="cls-1" d="M54.3,18.7c-1,0-2-.3-2.9-.8-.9-.5-1.5-1.2-2.1-2.2-.5-1-.8-2.1-.8-3.4s.3-2.5.8-3.5c.5-1,1.2-1.7,2-2.2.8-.5,1.7-.8,2.6-.8,1.5,0,2.6.5,3.5,1.5.8,1,1.3,2.4,1.3,4.2s0,.3,0,.5c0,.2,0,.3,0,.5h-8.8c0,1,.2,1.9.6,2.7.4.8.9,1.4,1.6,1.9.7.5,1.5.7,2.4.7s1.3-.1,1.8-.3c.5-.2,1-.5,1.5-.8l.5.9c-.5.3-1,.6-1.6.8-.6.3-1.3.4-2.3.4ZM49.7,11.5h7.8c0-1.6-.3-2.7-1-3.5-.6-.8-1.5-1.2-2.6-1.2s-1.4.2-2,.6c-.6.4-1.1.9-1.5,1.6-.4.7-.7,1.5-.7,2.5Z"/>
          <path class="cls-1" d="M62.5,18.4V6.1h1v1.9h.2c.6-.6,1.3-1.2,2-1.6.7-.4,1.4-.6,2.3-.6,1.3,0,2.2.4,2.8,1.2.6.8.9,2,.9,3.5v7.9h-1.1v-7.7c0-1.3-.2-2.3-.7-2.9-.4-.6-1.2-.9-2.2-.9s-1.4.2-2,.6c-.6.4-1.3,1-2,1.7v9.3h-1.1Z"/>
          <path class="cls-1" d="M74.9,18.4v-.6l7.3-10.7h-6.5v-1h7.9v.6l-7.2,10.7h7.5v1h-9Z"/>
        </g>
        <g>
          <circle class="cls-1" cx="16.3" cy="50.8" r="4.8"/>
          <circle class="cls-1" cx="27.7" cy="50.8" r="4.8"/>
          <circle class="cls-1" cx="39.2" cy="50.8" r="4.8"/>
          <circle class="cls-1" cx="4.8" cy="50.8" r="4.8"/>
        </g>
        <g>
          <path class="cls-1" d="M0,39.7v-12.3h2.4l.2,1.7h0c.5-.5,1.1-1,1.7-1.4.6-.4,1.3-.6,2.1-.6s1.6.2,2.2.6c.5.4,1,.9,1.2,1.6.6-.6,1.2-1.2,1.8-1.6.6-.4,1.3-.6,2.1-.6,1.3,0,2.3.4,2.9,1.3.6.8.9,2,.9,3.6v7.7h-2.9v-7.3c0-1-.2-1.7-.5-2.1-.3-.4-.8-.6-1.4-.6s-1.6.5-2.6,1.5v8.6h-2.9v-7.3c0-1-.2-1.7-.5-2.1-.3-.4-.8-.6-1.4-.6s-1.6.5-2.6,1.5v8.6H0Z"/>
          <path class="cls-1" d="M26.3,40c-1.1,0-2.2-.3-3.1-.8-.9-.5-1.6-1.2-2.2-2.2-.5-1-.8-2.1-.8-3.5s.3-2.5.8-3.4c.5-1,1.2-1.7,2.1-2.2.9-.5,1.8-.8,2.7-.8s2,.2,2.8.7c.7.5,1.3,1.2,1.7,2,.4.9.6,1.9.6,3s0,1.1-.1,1.4h-7.8c.1,1.1.5,1.9,1.2,2.5.6.6,1.5.9,2.4.9s1,0,1.5-.2c.5-.2.9-.4,1.4-.7l1,1.8c-.6.4-1.2.7-1.9.9-.7.2-1.5.4-2.2.4ZM23,32.4h5.4c0-.9-.2-1.7-.6-2.2-.4-.5-1-.8-1.9-.8s-1.4.3-1.9.8c-.6.5-.9,1.3-1,2.3Z"/>
          <path class="cls-1" d="M38.9,40c-1.1,0-2.2-.3-3.1-.8-.9-.5-1.6-1.2-2.2-2.2-.5-1-.8-2.1-.8-3.5s.3-2.5.8-3.4c.5-1,1.2-1.7,2.1-2.2.9-.5,1.8-.8,2.7-.8s2,.2,2.8.7c.7.5,1.3,1.2,1.7,2,.4.9.6,1.9.6,3s0,1.1-.1,1.4h-7.8c.1,1.1.5,1.9,1.2,2.5.6.6,1.5.9,2.4.9s1,0,1.5-.2c.5-.2.9-.4,1.4-.7l1,1.8c-.6.4-1.2.7-1.9.9-.7.2-1.5.4-2.2.4ZM35.7,32.4h5.4c0-.9-.2-1.7-.6-2.2-.4-.5-1-.8-1.9-.8s-1.4.3-1.9.8c-.6.5-.9,1.3-1,2.3Z"/>
          <path class="cls-1" d="M50.4,40c-1.4,0-2.4-.4-3-1.2-.6-.8-.9-1.9-.9-3.2v-5.8h-1.7v-2.1h1.9c0-.1.3-3.5.3-3.5h2.4v3.3h3.1v2.3h-3.1v5.8c0,1.4.6,2.1,1.7,2.1s.4,0,.7,0c.2,0,.4-.1.6-.2l.5,2.1c-.3.1-.7.2-1.1.3-.4,0-.9.1-1.4.1Z"/>
          <path class="cls-1" d="M58.3,40c-.8,0-1.7-.2-2.5-.5-.8-.3-1.5-.7-2.1-1.2l1.3-1.8c.6.4,1.1.7,1.6,1,.6.2,1.1.4,1.7.4s1.2-.1,1.5-.4c.3-.3.5-.6.5-1s-.1-.6-.4-.9-.6-.4-1-.6c-.4-.2-.8-.3-1.2-.5-.5-.2-1.1-.4-1.6-.7-.5-.3-1-.7-1.3-1.1-.3-.5-.5-1-.5-1.7,0-1.1.4-2,1.2-2.6s1.9-1,3.2-1,1.6.2,2.3.4c.7.3,1.3.6,1.8,1l-1.3,1.7c-.4-.3-.9-.6-1.3-.8-.4-.2-.9-.3-1.4-.3s-1.1.1-1.4.4c-.3.3-.4.6-.4,1s.2.8.7,1.1c.5.2,1.1.5,1.7.7.6.2,1.1.4,1.6.7.5.3,1,.7,1.3,1.1.4.5.5,1.1.5,1.8s-.4,1.9-1.2,2.7c-.8.7-2,1.1-3.5,1.1Z"/>
        </g>
      </g>
    </g>
  </g>
</svg>