<?xml version="1.0" encoding="UTF-8"?>
<svg xmlns="http://www.w3.org/2000/svg" version="1.1" viewBox="0 0 44.5 44.5">
  <defs>
    <style>
      .cls-1 {
        fill: #d33;
      }

      .cls-2 {
        fill: #fff;
      }
    </style>
  </defs>
  <!-- Generator: Adobe Illustrator 28.7.1, SVG Export Plug-In . SVG Version: 1.2.0 Build 142)  -->
  <g>
    <g id="Ebene_1">
      <g>
        <path class="cls-1" d="M22.3,0C10,0,0,10,0,22.3s10,22.3,22.3,22.3,22.3-10,22.3-22.3S34.5,0,22.3,0Z"/>
        <path class="cls-2" d="M18.5,27.2c-1.8,0-3.2,1.4-3.2,3.2s1.4,3.2,3.2,3.2,3.2-1.4,3.2-3.2-1.4-3.2-3.2-3.2Z"/>
        <path class="cls-2" d="M26.1,27.2c-1.8,0-3.2,1.4-3.2,3.2s1.4,3.2,3.2,3.2,3.2-1.4,3.2-3.2-1.4-3.2-3.2-3.2Z"/>
        <path class="cls-2" d="M33.7,27.2c-1.8,0-3.2,1.4-3.2,3.2s1.4,3.2,3.2,3.2,3.2-1.4,3.2-3.2-1.4-3.2-3.2-3.2Z"/>
        <path class="cls-2" d="M10.8,27.2c-1.8,0-3.2,1.4-3.2,3.2s1.4,3.2,3.2,3.2,3.2-1.4,3.2-3.2-1.4-3.2-3.2-3.2Z"/>
      </g>
      <g>
        <path class="cls-2" d="M11.8,23.5c-1.2,0-2.2-.4-3-1.3-.7-.9-1.1-2.2-1.1-3.8s.2-2,.6-2.8c.4-.8.9-1.4,1.6-1.8.7-.4,1.4-.6,2.2-.6s1.1.1,1.6.3c.4.2.9.5,1.4.9v-1.8s0-4.1,0-4.1h.9v14.7h-.8v-1.3h-.1c-.4.4-.9.7-1.4,1.1-.5.3-1.1.5-1.8.5ZM11.9,22.7c.5,0,1.1-.1,1.6-.4.5-.3,1-.7,1.5-1.2v-5.8c-.5-.5-1-.8-1.5-1-.5-.2-.9-.3-1.4-.3s-1.2.2-1.8.6c-.5.4-.9.9-1.2,1.6-.3.7-.5,1.4-.5,2.2,0,1.3.3,2.3.8,3.1.6.8,1.4,1.2,2.4,1.2Z"/>
        <path class="cls-2" d="M20.8,23.2l-2.6-9.8h2.3l1.2,5.1c.1.5.2.9.3,1.4,0,.5.2.9.2,1.4h0c0-.5.2-1,.3-1.4.1-.5.2-.9.3-1.4l1.3-5.1h2.1l1.3,5.1c.1.5.2.9.3,1.4.1.5.2.9.3,1.4h0c0-.5.2-1,.3-1.4,0-.5.2-.9.3-1.4l1.2-5.1h2.2l-2.5,9.8h-2.7l-1.1-4.6c-.1-.5-.2-.9-.3-1.4,0-.5-.2-1-.3-1.5h0c0,.5-.2,1-.3,1.5,0,.5-.2.9-.3,1.4l-1.1,4.6h-2.6Z"/>
        <path class="cls-2" d="M35.5,11.7c-.4,0-.7-.1-1-.4-.3-.2-.4-.6-.4-1s.1-.7.4-.9c.3-.2.6-.4,1-.4s.7.1,1,.4c.3.2.4.6.4.9s-.1.7-.4,1c-.3.2-.6.4-1,.4ZM34.3,23.2v-9.8h2.3v9.8h-2.3Z"/>
      </g>
    </g>
  </g>
</svg>