<svg width="14" height="14" viewBox="0 0 14 14" fill="none" xmlns="http://www.w3.org/2000/svg">
<path d="M6.99922 7.7853C6.89416 7.7853 6.79013 7.76461 6.69307 7.72441C6.59601 7.6842 6.50782 7.62528 6.43353 7.55099C6.35925 7.4767 6.30032 7.38851 6.26012 7.29145C6.21991 7.19439 6.19922 7.09036 6.19922 6.9853C6.19922 6.88025 6.21991 6.77622 6.26012 6.67916C6.30032 6.5821 6.35925 6.4939 6.43353 6.41962C6.50782 6.34533 6.59601 6.2864 6.69307 6.2462C6.79013 6.206 6.89416 6.1853 6.99922 6.1853C7.21139 6.1853 7.41488 6.26959 7.5649 6.41962C7.71493 6.56965 7.79922 6.77313 7.79922 6.9853C7.79922 7.19748 7.71493 7.40096 7.5649 7.55099C7.41488 7.70102 7.21139 7.7853 6.99922 7.7853ZM9.99922 7.7853C9.89416 7.7853 9.79013 7.76461 9.69307 7.72441C9.59601 7.6842 9.50782 7.62528 9.43353 7.55099C9.35925 7.4767 9.30032 7.38851 9.26012 7.29145C9.21991 7.19439 9.19922 7.09036 9.19922 6.9853C9.19922 6.88025 9.21991 6.77622 9.26012 6.67916C9.30032 6.5821 9.35925 6.4939 9.43353 6.41962C9.50782 6.34533 9.59601 6.2864 9.69307 6.2462C9.79013 6.206 9.89416 6.1853 9.99922 6.1853C10.2114 6.1853 10.4149 6.26959 10.5649 6.41962C10.7149 6.56965 10.7992 6.77313 10.7992 6.9853C10.7992 7.19748 10.7149 7.40096 10.5649 7.55099C10.4149 7.70102 10.2114 7.7853 9.99922 7.7853ZM3.99922 7.7853C3.89416 7.7853 3.79013 7.76461 3.69307 7.72441C3.59601 7.6842 3.50782 7.62528 3.43353 7.55099C3.35925 7.4767 3.30032 7.38851 3.26012 7.29145C3.21991 7.19439 3.19922 7.09036 3.19922 6.9853C3.19922 6.88025 3.21991 6.77622 3.26012 6.67916C3.30032 6.5821 3.35925 6.4939 3.43353 6.41962C3.50782 6.34533 3.59601 6.2864 3.69307 6.2462C3.79013 6.206 3.89416 6.1853 3.99922 6.1853C4.21139 6.1853 4.41488 6.26959 4.5649 6.41962C4.71493 6.56965 4.79922 6.77313 4.79922 6.9853C4.79922 7.19748 4.71493 7.40096 4.5649 7.55099C4.41488 7.70102 4.21139 7.7853 3.99922 7.7853Z" fill="#24214E"/>
<path d="M1.73 12.2623L3.844 11.5573L4.214 11.7423C5.064 12.1663 6.009 12.3923 7 12.3923C10.31 12.3923 13 9.78633 13 6.89233C13 3.99833 10.31 1.39233 7 1.39233C3.69 1.39233 1 3.99833 1 6.89233C1 7.97233 1.39 9.06833 2.107 10.0053L2.452 10.4553L1.729 12.2613L1.73 12.2623ZM1.023 13.5523C0.932507 13.5827 0.835226 13.5864 0.74265 13.5632C0.650073 13.5401 0.566068 13.4909 0.500557 13.4215C0.435046 13.352 0.390766 13.2653 0.372947 13.1716C0.355129 13.0778 0.364516 12.9809 0.4 12.8923L1.312 10.6123C0.48 9.52233 0 8.21833 0 6.89233C0 3.57833 3 0.392334 7 0.392334C11 0.392334 14 3.57833 14 6.89233C14 10.2063 11 13.3923 7 13.3923C5.87817 13.3955 4.7711 13.1366 3.767 12.6363L1.023 13.5523Z" fill="#24214E"/>
</svg>
