<svg width="365" height="176" viewBox="0 0 365 176" fill="none" xmlns="http://www.w3.org/2000/svg">
<g filter="url(#filter0_d_3580_341)">
<path d="M153.788 16.6941C80.1281 16.6941 20.4145 46.2713 20.4141 82.7566C20.4141 119.242 80.1278 148.82 153.788 148.82C182.271 148.82 208.668 144.398 230.334 136.864L262.647 151.946L257.955 124.018C276.232 112.713 287.162 98.3666 287.162 82.7566C287.162 46.2712 227.448 16.6941 153.788 16.6941Z" fill="white"/>
</g>
<path d="M362.561 42.6445C362.867 54.6938 359.975 66.8254 354.085 77.3347C351.323 82.272 347.796 86.9859 342.859 89.7367C337.933 92.4992 331.374 92.8871 326.836 89.5251L326.754 89.4781C331.585 81.4256 336.628 73.5025 338.18 64.345C339.873 54.3999 337.146 44.1962 333.172 34.9212C330.61 28.9847 327.071 22.4722 322.357 17.3469C324.65 15.5248 326.86 13.5969 329.234 11.8806C333.29 8.94173 338.145 6.59065 343.141 7.08438C347.467 7.51933 351.382 10.1055 354.132 13.4793C356.871 16.8531 358.576 20.9675 359.822 25.1407C361.526 30.8186 362.432 36.7198 362.561 42.6445Z" fill="#C5C2C2"/>
<path d="M304.36 7.97789C311.648 8.35406 317.597 12.1511 322.358 17.347C320.712 18.6518 319.031 19.8861 317.232 20.9441C309.133 25.7051 298.729 26.3046 290.136 22.5076C287.42 21.3085 284.823 19.698 282.225 18.1346C285.293 15.1369 288.749 12.539 292.581 10.5641C296.19 8.68322 300.293 7.76629 304.36 7.97789Z" fill="#C5C2C2"/>
<path d="M282.224 18.1345C279.085 21.1791 276.346 24.647 274.019 28.3499C265.802 41.3514 260.241 59.3489 265.414 74.4311C267.483 80.4852 271.233 85.7398 275.124 90.8652L274.877 91.0533C274.077 96.4137 267.741 99.5877 262.416 98.5885C257.079 97.5893 252.824 93.5807 249.556 89.2429C247.404 86.3864 245.547 83.2947 244.019 80.062C240.292 72.1623 238.482 63.3458 238.917 54.6233C239.305 46.8647 241.456 39.2002 245.1 32.3232C247.216 28.3146 249.838 24.5647 252.918 21.2261C256.821 16.9942 261.817 13.2324 267.565 12.9503C272.878 12.6799 277.557 15.3132 282.224 18.1345Z" fill="#C5C2C2"/>
<path d="M318.09 107.534C313.646 122.934 317.996 139.18 311.06 153.933C309.884 156.425 307.968 159.399 306.029 161.362C304.583 162.808 302.902 164.148 301.068 165.277C297.188 167.698 292.639 169.203 288.254 168.921C287.784 168.897 287.314 168.85 286.844 168.78C271.773 166.499 274.312 151.582 274.312 151.582C274.312 151.582 275.453 152.675 276.569 153.721C277.486 154.568 278.38 155.379 278.685 155.59C280.343 156.731 282.247 157.53 284.293 157.448C287.772 157.283 291.087 155.12 293.356 152.416C293.885 151.77 294.367 151.088 294.779 150.406C296.801 147.009 297.588 142.977 297.518 139.027C297.494 137.005 297.294 134.96 296.953 132.926C296.107 127.765 294.402 122.628 292.357 117.985C288.971 110.261 284.305 103.161 279.308 96.4018C279.167 96.202 279.015 96.0139 278.874 95.8141C277.639 94.1683 276.37 92.5225 275.124 90.865C271.233 85.7397 267.483 80.485 265.414 74.431C260.241 59.3488 265.801 41.3512 274.019 28.3497C276.346 24.6468 279.085 21.1789 282.224 18.1343C284.822 19.6978 287.42 21.3083 290.135 22.5073C298.728 26.3043 309.132 25.7048 317.231 20.9438C319.03 19.8859 320.711 18.6515 322.357 17.3467C327.071 22.472 330.609 28.9845 333.172 34.921C337.145 44.196 339.872 54.3997 338.18 64.3448C336.628 73.5023 331.585 81.4254 326.753 89.4779C323.285 95.2733 319.935 101.116 318.09 107.534Z" fill="#E1DFE0"/>
<path d="M293.356 152.417C293.885 151.77 294.367 151.088 294.779 150.406C296.801 147.009 297.588 142.977 297.518 139.027C297.494 137.005 297.294 134.96 296.953 132.926C296.107 127.766 294.402 122.628 292.357 117.985C288.971 110.262 284.305 103.161 279.308 96.4021C279.167 96.2023 279.015 96.0142 278.874 95.8143C277.639 94.1686 276.37 92.5228 275.124 90.8653C271.233 85.7399 267.483 80.4853 265.414 74.4312C260.241 59.349 265.801 41.3515 274.019 28.35C276.346 24.6471 279.085 21.1792 282.224 18.1346C285.292 15.1369 288.748 12.539 292.58 10.5641C296.189 8.68322 300.292 7.76629 304.359 7.97789C311.648 8.35406 317.596 12.1511 322.357 17.347C327.071 22.4723 330.609 28.9848 333.172 34.9213C337.145 44.1963 339.872 54.4 338.18 64.3451C336.628 73.5026 331.585 81.4257 326.753 89.4782C323.285 95.2736 319.935 101.116 318.09 107.534C313.646 122.934 317.996 139.18 311.06 153.933C309.884 156.425 307.968 159.399 306.029 161.363C304.583 162.808 302.902 164.149 301.068 165.277C297.188 167.699 292.639 169.203 288.254 168.921C287.784 168.898 287.314 168.851 286.844 168.78C271.773 166.5 274.312 151.582 274.312 151.582C274.312 151.582 275.453 152.675 276.569 153.722C277.486 154.568 278.38 155.379 278.685 155.591C280.343 156.731 282.247 157.53 284.293 157.448C287.772 157.283 291.087 155.12 293.356 152.417Z" stroke="#443964" stroke-width="4" stroke-miterlimit="10" stroke-linecap="round" stroke-linejoin="round"/>
<path d="M274.877 91.0533C274.077 96.4138 267.741 99.5877 262.416 98.5885C257.079 97.5893 252.824 93.5807 249.556 89.243C247.404 86.3864 245.547 83.2947 244.019 80.062C240.292 72.1623 238.482 63.3458 238.917 54.6233C239.305 46.8647 241.456 39.2002 245.1 32.3233C247.216 28.3147 249.838 24.5647 252.918 21.2261C256.821 16.9942 261.817 13.2325 267.565 12.9503C272.878 12.68 277.557 15.3132 282.224 18.1345C284.822 19.6979 287.42 21.3084 290.135 22.5075C298.729 26.3045 309.132 25.705 317.232 20.944C319.03 19.886 320.711 18.6517 322.357 17.3469C324.649 15.5248 326.859 13.5969 329.234 11.8806C333.289 8.94173 338.144 6.59065 343.14 7.08438C347.466 7.51933 351.381 10.1055 354.132 13.4793C356.871 16.8531 358.575 20.9675 359.821 25.1407C361.526 30.8186 362.431 36.7198 362.56 42.6445C362.866 54.6938 359.974 66.8254 354.085 77.3347C351.322 82.272 347.796 86.9859 342.858 89.7367C337.933 92.4992 331.373 92.8871 326.836 89.5251" stroke="#443964" stroke-width="4" stroke-miterlimit="10" stroke-linecap="round" stroke-linejoin="round"/>
<path d="M276.969 63.275C277.286 61.7116 278.579 60.3832 280.131 60.0305C281.694 59.6896 283.434 60.3362 284.375 61.6293" stroke="#443964" stroke-width="2" stroke-miterlimit="10" stroke-linecap="round" stroke-linejoin="round"/>
<path d="M317.818 61.394C318.465 59.4308 320.534 58.0319 322.603 58.1847C324.66 58.3376 326.506 60.0186 326.847 62.064" stroke="#443964" stroke-width="2" stroke-miterlimit="10" stroke-linecap="round" stroke-linejoin="round"/>
<path d="M298.801 109.592L316.716 109.063" stroke="#443964" stroke-width="2" stroke-miterlimit="10" stroke-linecap="round" stroke-linejoin="round"/>
<path d="M303.467 122.487H314.729" stroke="#443964" stroke-width="2" stroke-miterlimit="10" stroke-linecap="round" stroke-linejoin="round"/>
<path d="M305.369 134.607L313.939 134.948" stroke="#443964" stroke-width="2" stroke-miterlimit="10" stroke-linecap="round" stroke-linejoin="round"/>
<path d="M303.984 149.066L311.778 149.666" stroke="#443964" stroke-width="2" stroke-miterlimit="10" stroke-linecap="round" stroke-linejoin="round"/>
<path d="M228.713 111.24C226.791 111.24 225.83 110.613 225.83 109.359C225.83 107.941 226.574 107.238 228.062 107.25C229.164 107.25 229.879 107.466 230.207 107.9C230.547 108.322 230.717 108.99 230.717 109.904C230.717 110.291 230.512 110.607 230.102 110.853C229.703 111.111 229.24 111.24 228.713 111.24ZM228.062 104.542C227.723 104.542 227.4 104.443 227.096 104.244C226.803 104.033 226.656 103.734 226.656 103.347C226.656 102.128 226.867 101.009 227.289 99.9897C227.711 98.9702 228.227 98.1265 228.836 97.4585C229.445 96.7788 230.049 96.1577 230.646 95.5952C231.244 95.0327 231.76 94.4878 232.193 93.9604C232.627 93.4331 232.844 92.9292 232.844 92.4487C232.844 91.8276 232.551 91.3237 231.965 90.937C231.379 90.5503 230.688 90.3569 229.891 90.3569C229 90.3569 228.115 90.6089 227.236 91.1128C226.369 91.6167 225.596 92.1206 224.916 92.6245C224.248 93.1284 223.709 93.3804 223.299 93.3804C222.361 93.3804 221.893 92.853 221.893 91.7983C221.893 90.4976 222.795 89.3198 224.6 88.2651C226.404 87.2104 228.268 86.6831 230.189 86.6831C232.135 86.6831 233.734 87.1929 234.988 88.2124C236.242 89.2319 236.869 90.5503 236.869 92.1675C236.869 92.8589 236.617 93.5737 236.113 94.312C235.609 95.0386 235.006 95.7241 234.303 96.3687C233.6 97.0132 232.891 97.687 232.176 98.3901C231.473 99.0815 230.869 99.8608 230.365 100.728C229.861 101.595 229.609 102.468 229.609 103.347C229.609 104.144 229.094 104.542 228.062 104.542Z" fill="#DB007E"/>
<path d="M215.916 111.24C215.225 111.24 214.645 111.064 214.176 110.712C213.707 110.373 213.473 109.851 213.473 109.148V100.148C213.473 98.6128 213.256 97.5171 212.822 96.8608C212.389 96.1929 211.744 95.8589 210.889 95.8589C209.518 95.8589 208.352 96.5093 207.391 97.8101C206.43 99.1108 205.832 101.197 205.598 104.068C205.645 106.47 205.668 108.392 205.668 109.833C205.668 110.291 205.504 110.636 205.176 110.871C204.848 111.117 204.508 111.24 204.156 111.24C203.336 111.24 202.592 111.07 201.924 110.73C201.268 110.402 200.939 109.851 200.939 109.078C200.939 107.132 200.975 104.49 201.045 101.15C201.127 97.7983 201.168 95.1499 201.168 93.2046C201.168 92.6772 201.373 92.2671 201.783 91.9741C202.205 91.6694 202.691 91.5171 203.242 91.5171C203.805 91.5171 204.32 91.7046 204.789 92.0796C205.258 92.4429 205.492 92.9351 205.492 93.5562V96.2983C206.711 93.1108 209.131 91.5171 212.752 91.5171C214.357 91.5171 215.641 92.0679 216.602 93.1694C217.562 94.271 218.043 95.7827 218.043 97.7046C218.043 99.4038 218.061 101.46 218.096 103.875C218.131 106.289 218.148 108.345 218.148 110.044C218.148 110.431 217.92 110.724 217.463 110.923C217.006 111.134 216.49 111.24 215.916 111.24Z" fill="#DB007E"/>
<path d="M190.902 111.24C188.336 111.24 186.367 110.437 184.996 108.832C183.625 107.226 182.939 104.894 182.939 101.835C182.939 98.6948 183.713 96.1929 185.26 94.3296C186.807 92.4546 189.021 91.5171 191.904 91.5171C193.686 91.5171 195.086 91.98 196.105 92.9058C197.125 93.8198 197.635 94.9858 197.635 96.4038C197.635 98.3491 196.768 99.978 195.033 101.291C193.311 102.591 190.996 103.306 188.09 103.435C188.383 104.607 188.875 105.509 189.566 106.142C190.258 106.775 191.107 107.091 192.115 107.091C192.736 107.091 193.299 106.968 193.803 106.722C194.318 106.464 194.711 106.189 194.98 105.896C195.262 105.591 195.555 105.316 195.859 105.07C196.176 104.812 196.475 104.683 196.756 104.683C197.33 104.683 197.623 105.035 197.635 105.738C197.635 107.062 196.979 108.31 195.666 109.482C194.365 110.654 192.777 111.24 190.902 111.24ZM187.686 100.587C189.443 100.494 190.826 100.095 191.834 99.3921C192.842 98.6772 193.346 97.8628 193.346 96.9487C193.346 96.3276 193.182 95.8413 192.854 95.4897C192.537 95.1382 192.086 94.9624 191.5 94.9624C190.305 94.9624 189.373 95.4722 188.705 96.4917C188.049 97.4995 187.709 98.8647 187.686 100.587Z" fill="#DB007E"/>
<path d="M173.816 111.24C172.574 111.24 171.947 110.63 171.936 109.412C171.936 106.072 171.959 101.302 172.006 95.103C171.689 95.1265 171.273 95.144 170.758 95.1558C170.301 95.1558 169.926 94.9507 169.633 94.5405C169.352 94.1304 169.211 93.6382 169.211 93.064C169.211 92.6069 169.322 92.2964 169.545 92.1323C169.768 91.9565 170.172 91.8687 170.758 91.8687H172.041V91.1831C172.041 86.5073 174.086 84.1694 178.176 84.1694C178.996 84.1694 179.67 84.3335 180.197 84.6616C180.736 84.978 181.006 85.4116 181.006 85.9624C181.006 86.6772 180.672 87.0405 180.004 87.0522C178.656 87.0522 177.701 87.3452 177.139 87.9312C176.576 88.5171 176.295 89.6011 176.295 91.1831V91.6577C178.018 91.564 179.207 91.5171 179.863 91.5171C180.637 91.5171 181.018 91.9214 181.006 92.73C181.006 93.2339 180.871 93.6675 180.602 94.0308C180.344 94.394 179.975 94.5757 179.494 94.5757C178.627 94.5757 177.572 94.6343 176.33 94.7515C176.354 95.3022 176.418 97.4116 176.523 101.08C176.641 104.736 176.699 107.472 176.699 109.289C176.699 109.816 176.441 110.273 175.926 110.66C175.41 111.046 174.707 111.24 173.816 111.24Z" fill="#DB007E"/>
<path d="M164.271 111.24C163.627 111.24 163.1 110.958 162.689 110.396C162.279 109.833 162.074 109.083 162.074 108.146C162.074 105.626 162.086 101.964 162.109 97.1597C162.133 92.3433 162.145 88.6753 162.145 86.1558C162.145 85.4878 162.297 84.9897 162.602 84.6616C162.918 84.3335 163.281 84.1694 163.691 84.1694C164.242 84.1694 164.852 84.3804 165.52 84.8022C166.199 85.2241 166.539 85.7104 166.539 86.2612C166.539 88.4175 166.58 92.0503 166.662 97.1597C166.744 102.269 166.785 106.171 166.785 108.867C166.785 109.664 166.545 110.255 166.064 110.642C165.584 111.041 164.986 111.24 164.271 111.24Z" fill="#DB007E"/>
<path d="M151.879 111.24C149.312 111.24 147.344 110.437 145.973 108.832C144.602 107.226 143.916 104.894 143.916 101.835C143.916 98.6948 144.689 96.1929 146.236 94.3296C147.783 92.4546 149.998 91.5171 152.881 91.5171C154.662 91.5171 156.062 91.98 157.082 92.9058C158.102 93.8198 158.611 94.9858 158.611 96.4038C158.611 98.3491 157.744 99.978 156.01 101.291C154.287 102.591 151.973 103.306 149.066 103.435C149.359 104.607 149.852 105.509 150.543 106.142C151.234 106.775 152.084 107.091 153.092 107.091C153.713 107.091 154.275 106.968 154.779 106.722C155.295 106.464 155.688 106.189 155.957 105.896C156.238 105.591 156.531 105.316 156.836 105.07C157.152 104.812 157.451 104.683 157.732 104.683C158.307 104.683 158.6 105.035 158.611 105.738C158.611 107.062 157.955 108.31 156.643 109.482C155.342 110.654 153.754 111.24 151.879 111.24ZM148.662 100.587C150.42 100.494 151.803 100.095 152.811 99.3921C153.818 98.6772 154.322 97.8628 154.322 96.9487C154.322 96.3276 154.158 95.8413 153.83 95.4897C153.514 95.1382 153.062 94.9624 152.477 94.9624C151.281 94.9624 150.35 95.4722 149.682 96.4917C149.025 97.4995 148.686 98.8647 148.662 100.587Z" fill="#DB007E"/>
<path d="M138.291 111.24C137.6 111.24 137.02 111.064 136.551 110.712C136.082 110.373 135.848 109.851 135.848 109.148V100.148C135.848 98.6128 135.631 97.5171 135.197 96.8608C134.764 96.1929 134.119 95.8589 133.264 95.8589C130.217 95.8589 128.465 98.5015 128.008 103.787C128.031 104.748 128.043 106.634 128.043 109.447C128.043 110.021 127.85 110.46 127.463 110.765C127.076 111.082 126.619 111.24 126.092 111.24C125.471 111.24 124.914 111.011 124.422 110.554C123.93 110.097 123.684 109.476 123.684 108.691C123.684 106.746 123.637 103.019 123.543 97.5112C123.449 92.0034 123.402 88.2769 123.402 86.3315C123.402 85.5581 123.719 85.0073 124.352 84.6792C124.984 84.3394 125.711 84.1694 126.531 84.1694C126.895 84.1694 127.234 84.3218 127.551 84.6265C127.879 84.9194 128.043 85.3179 128.043 85.8218C128.043 88.2944 128.02 91.6401 127.973 95.8589C129.32 92.9526 131.705 91.5054 135.127 91.5171C136.615 91.5171 137.869 92.0796 138.889 93.2046C139.908 94.3296 140.418 95.8296 140.418 97.7046C140.418 99.4038 140.436 101.46 140.471 103.875C140.506 106.289 140.523 108.345 140.523 110.044C140.523 110.431 140.295 110.724 139.838 110.923C139.381 111.134 138.865 111.24 138.291 111.24Z" fill="#DB007E"/>
<path d="M104.523 111.24C103.516 111.24 102.695 111.064 102.062 110.712C101.441 110.373 101.131 109.951 101.131 109.447C101.131 107.689 101.189 104.888 101.307 101.044C101.436 97.189 101.5 94.3823 101.5 92.6245C101.5 91.8862 101.846 91.5171 102.537 91.5171C103.24 91.5171 103.949 91.6343 104.664 91.8687C105.391 92.0913 105.754 92.3433 105.754 92.6245C105.754 94.1362 105.766 95.314 105.789 96.1577C106.246 94.6929 106.896 93.5562 107.74 92.7476C108.596 91.9272 109.586 91.5171 110.711 91.5171C111.766 91.5171 112.293 92.1499 112.293 93.4155C112.293 96.0054 111.789 97.3003 110.781 97.3003C110.465 97.3003 110.107 97.2534 109.709 97.1597C109.322 97.0659 109.035 97.019 108.848 97.019C108.074 97.019 107.412 97.4409 106.861 98.2847C106.311 99.1167 105.977 100.125 105.859 101.308L106.07 110.484C106.07 110.988 105.555 111.24 104.523 111.24Z" fill="#24214E"/>
<path d="M96.0859 111.24C95.0078 111.24 94.1465 111.023 93.502 110.589C92.8691 110.156 92.5527 109.628 92.5527 109.007C92.5527 107.25 92.6113 104.531 92.7285 100.851C92.8574 97.1714 92.9219 94.4526 92.9219 92.6948C92.9219 92.2847 93.0449 91.9858 93.291 91.7983C93.5488 91.6108 93.8594 91.5171 94.2227 91.5171C94.8906 91.5171 95.5469 91.6343 96.1914 91.8687C96.8477 92.0913 97.1758 92.3667 97.1758 92.6948L97.4219 110.203C97.4219 110.894 96.9766 111.24 96.0859 111.24ZM94.873 88.8101C93.4082 88.8101 92.6758 88.1011 92.6758 86.6831C92.6758 85.4409 93.6953 84.8198 95.7344 84.8198C96.9297 84.8198 97.5273 85.1187 97.5273 85.7163C97.5273 86.1733 97.498 86.5659 97.4395 86.894C97.3809 87.2104 97.2637 87.5269 97.0879 87.8433C96.9238 88.1479 96.6543 88.3882 96.2793 88.564C95.916 88.728 95.4473 88.8101 94.873 88.8101Z" fill="#24214E"/>
<path d="M78.8242 111.24C76.7852 111.24 75.1504 110.501 73.9199 109.025C72.7012 107.548 72.0918 105.24 72.0918 102.099C72.0918 99.0522 72.7539 96.5269 74.0781 94.5229C75.4141 92.519 77.2129 91.5171 79.4746 91.5171C81.584 91.5171 83.3008 92.6421 84.625 94.8921C84.6953 92.4663 84.7305 89.5366 84.7305 86.103C84.7305 85.5288 85.0703 85.0659 85.75 84.7144C86.4414 84.3511 87.168 84.1694 87.9297 84.1694C88.75 84.1694 89.1836 84.6851 89.2305 85.7163C89.1836 87.5444 89.0254 91.4644 88.7559 97.4761C88.498 103.488 88.3457 107.402 88.2988 109.218C88.2754 109.769 88.0234 110.244 87.543 110.642C87.0625 111.041 86.5352 111.24 85.9609 111.24C85.5508 111.24 85.2051 111.093 84.9238 110.8C84.6543 110.519 84.5195 110.115 84.5195 109.587C84.5195 109.294 84.5371 108.779 84.5723 108.041C84.6074 107.291 84.625 106.833 84.625 106.669C83.418 109.716 81.4844 111.24 78.8242 111.24ZM79.4746 107.531C80.4824 107.531 81.4199 106.88 82.2871 105.58C83.166 104.267 83.875 102.339 84.4141 99.7964C84.0273 98.5776 83.459 97.6167 82.709 96.9136C81.9707 96.2104 81.1562 95.8589 80.2656 95.8589C79.2812 95.8589 78.4609 96.4741 77.8047 97.7046C77.1602 98.9233 76.8379 100.388 76.8379 102.099C76.8379 105.72 77.7168 107.531 79.4746 107.531Z" fill="#24214E"/>
<path d="M215.529 74.2397C214.838 74.2397 214.258 74.064 213.789 73.7124C213.32 73.3726 213.086 72.8511 213.086 72.1479V63.1479C213.086 61.6128 212.869 60.5171 212.436 59.8608C212.002 59.1929 211.357 58.8589 210.502 58.8589C207.455 58.8589 205.703 61.5015 205.246 66.7866C205.27 67.7476 205.281 69.6343 205.281 72.4468C205.281 73.021 205.088 73.4604 204.701 73.7651C204.314 74.0815 203.857 74.2397 203.33 74.2397C202.709 74.2397 202.152 74.0112 201.66 73.5542C201.168 73.0972 200.922 72.4761 200.922 71.6909C200.922 69.7456 200.875 66.019 200.781 60.5112C200.688 55.0034 200.641 51.2769 200.641 49.3315C200.641 48.5581 200.957 48.0073 201.59 47.6792C202.223 47.3394 202.949 47.1694 203.77 47.1694C204.133 47.1694 204.473 47.3218 204.789 47.6265C205.117 47.9194 205.281 48.3179 205.281 48.8218C205.281 51.2944 205.258 54.6401 205.211 58.8589C206.559 55.9526 208.943 54.5054 212.365 54.5171C213.854 54.5171 215.107 55.0796 216.127 56.2046C217.146 57.3296 217.656 58.8296 217.656 60.7046C217.656 62.4038 217.674 64.4604 217.709 66.8745C217.744 69.2886 217.762 71.3452 217.762 73.0444C217.762 73.4312 217.533 73.7241 217.076 73.9233C216.619 74.1343 216.104 74.2397 215.529 74.2397Z" fill="#24214E"/>
<path d="M190.516 74.2397C187.949 74.2397 185.98 73.437 184.609 71.8315C183.238 70.2261 182.553 67.894 182.553 64.8354C182.553 61.6948 183.326 59.1929 184.873 57.3296C186.42 55.4546 188.635 54.5171 191.518 54.5171C193.193 54.5171 194.564 54.9624 195.631 55.853C196.709 56.7319 197.248 57.8335 197.248 59.1577C197.248 60.5757 196.832 61.6772 196 62.4624C195.168 63.2358 194.236 63.6226 193.205 63.6226C192.654 63.6226 192.379 63.394 192.379 62.937C192.379 62.7026 192.473 62.3276 192.66 61.812C192.859 61.2847 192.959 60.8042 192.959 60.3706C192.959 58.7651 192.344 57.9624 191.113 57.9624C189.895 57.9624 188.951 58.4839 188.283 59.5269C187.627 60.5698 187.299 61.9819 187.299 63.7632C187.299 65.8022 187.697 67.3667 188.494 68.4565C189.291 69.5464 190.369 70.0913 191.729 70.0913C192.35 70.0913 192.912 69.9683 193.416 69.7222C193.932 69.4644 194.324 69.189 194.594 68.896C194.875 68.5913 195.168 68.3159 195.473 68.0698C195.789 67.812 196.088 67.6831 196.369 67.6831C196.943 67.6831 197.236 68.0347 197.248 68.7378C197.248 70.062 196.592 71.3101 195.279 72.4819C193.979 73.6538 192.391 74.2397 190.516 74.2397Z" fill="#24214E"/>
<path d="M177.859 74.2397C176.781 74.2397 175.92 74.0229 175.275 73.5894C174.643 73.1558 174.326 72.6284 174.326 72.0073C174.326 70.2495 174.385 67.5308 174.502 63.8511C174.631 60.1714 174.695 57.4526 174.695 55.6948C174.695 55.2847 174.818 54.9858 175.064 54.7983C175.322 54.6108 175.633 54.5171 175.996 54.5171C176.664 54.5171 177.32 54.6343 177.965 54.8687C178.621 55.0913 178.949 55.3667 178.949 55.6948L179.195 73.2026C179.195 73.894 178.75 74.2397 177.859 74.2397ZM176.646 51.8101C175.182 51.8101 174.449 51.1011 174.449 49.6831C174.449 48.4409 175.469 47.8198 177.508 47.8198C178.703 47.8198 179.301 48.1187 179.301 48.7163C179.301 49.1733 179.271 49.5659 179.213 49.894C179.154 50.2104 179.037 50.5269 178.861 50.8433C178.697 51.1479 178.428 51.3882 178.053 51.564C177.689 51.728 177.221 51.8101 176.646 51.8101Z" fill="#24214E"/>
<path d="M159.385 74.2397C158.693 74.2397 158.113 74.064 157.645 73.7124C157.176 73.3726 156.941 72.8511 156.941 72.1479V63.1479C156.941 61.6128 156.725 60.5171 156.291 59.8608C155.857 59.1929 155.213 58.8589 154.357 58.8589C152.986 58.8589 151.82 59.5093 150.859 60.8101C149.898 62.1108 149.301 64.1968 149.066 67.0679C149.113 69.4702 149.137 71.3921 149.137 72.8335C149.137 73.2905 148.973 73.6362 148.645 73.8706C148.316 74.1167 147.977 74.2397 147.625 74.2397C146.805 74.2397 146.061 74.0698 145.393 73.73C144.736 73.4019 144.408 72.8511 144.408 72.0776C144.408 70.1323 144.443 67.4897 144.514 64.1499C144.596 60.7983 144.637 58.1499 144.637 56.2046C144.637 55.6772 144.842 55.2671 145.252 54.9741C145.674 54.6694 146.16 54.5171 146.711 54.5171C147.273 54.5171 147.789 54.7046 148.258 55.0796C148.727 55.4429 148.961 55.9351 148.961 56.5562V59.2983C150.18 56.1108 152.6 54.5171 156.221 54.5171C157.826 54.5171 159.109 55.0679 160.07 56.1694C161.031 57.271 161.512 58.7827 161.512 60.7046C161.512 62.4038 161.529 64.4604 161.564 66.8745C161.6 69.2886 161.617 71.3452 161.617 73.0444C161.617 73.4312 161.389 73.7241 160.932 73.9233C160.475 74.1343 159.959 74.2397 159.385 74.2397Z" fill="#24214E"/>
<path d="M138.432 74.2397C137.74 74.2397 137.16 74.064 136.691 73.7124C136.223 73.3726 135.988 72.8511 135.988 72.1479V63.1479C135.988 61.6128 135.771 60.5171 135.338 59.8608C134.904 59.1929 134.26 58.8589 133.404 58.8589C132.033 58.8589 130.867 59.5093 129.906 60.8101C128.945 62.1108 128.348 64.1968 128.113 67.0679C128.16 69.4702 128.184 71.3921 128.184 72.8335C128.184 73.2905 128.02 73.6362 127.691 73.8706C127.363 74.1167 127.023 74.2397 126.672 74.2397C125.852 74.2397 125.107 74.0698 124.439 73.73C123.783 73.4019 123.455 72.8511 123.455 72.0776C123.455 70.1323 123.49 67.4897 123.561 64.1499C123.643 60.7983 123.684 58.1499 123.684 56.2046C123.684 55.6772 123.889 55.2671 124.299 54.9741C124.721 54.6694 125.207 54.5171 125.758 54.5171C126.32 54.5171 126.836 54.7046 127.305 55.0796C127.773 55.4429 128.008 55.9351 128.008 56.5562V59.2983C129.227 56.1108 131.646 54.5171 135.268 54.5171C136.873 54.5171 138.156 55.0679 139.117 56.1694C140.078 57.271 140.559 58.7827 140.559 60.7046C140.559 62.4038 140.576 64.4604 140.611 66.8745C140.646 69.2886 140.664 71.3452 140.664 73.0444C140.664 73.4312 140.436 73.7241 139.979 73.9233C139.521 74.1343 139.006 74.2397 138.432 74.2397Z" fill="#24214E"/>
<path d="M108.566 74.2397C106.527 74.2397 104.893 73.5015 103.662 72.0249C102.443 70.5483 101.834 68.2397 101.834 65.0991C101.834 62.0522 102.496 59.5269 103.82 57.5229C105.156 55.519 106.955 54.5171 109.217 54.5171C111.783 54.5171 113.787 56.1694 115.229 59.4741C115.346 58.4663 115.404 57.5464 115.404 56.7144C115.404 55.2495 115.908 54.5171 116.916 54.5171C117.561 54.5171 118.129 54.7339 118.621 55.1675C119.113 55.5894 119.359 56.1284 119.359 56.7847C119.359 58.3901 119.418 61.1851 119.535 65.1694C119.664 69.1538 119.729 71.8315 119.729 73.2026C119.729 73.894 119.236 74.2397 118.252 74.2397C116.646 74.2397 115.756 73.8413 115.58 73.0444C115.311 71.7671 115.182 70.1851 115.193 68.2983C113.963 72.2593 111.754 74.2397 108.566 74.2397ZM109.217 70.5308C110.178 70.5308 111.133 69.8979 112.082 68.6323C113.031 67.355 113.793 65.6147 114.367 63.4116C113.98 62.0171 113.4 60.9097 112.627 60.0894C111.865 59.269 110.992 58.8589 110.008 58.8589C109.023 58.8589 108.203 59.4741 107.547 60.7046C106.902 61.9233 106.58 63.3882 106.58 65.0991C106.58 68.7202 107.459 70.5308 109.217 70.5308Z" fill="#24214E"/>
<path d="M95.6816 74.2397C95.3184 74.2397 94.8145 73.7417 94.1699 72.7456C93.5254 71.7495 92.8809 70.6421 92.2363 69.4233C91.6035 68.1929 90.8652 67.0151 90.0215 65.8901C89.1895 64.7651 88.4395 64.103 87.7715 63.9038C87.7715 64.6772 87.7773 66.1538 87.7891 68.3335C87.8008 70.5132 87.8066 72.0718 87.8066 73.0093C87.8066 73.396 87.5898 73.6948 87.1562 73.9058C86.7227 74.1284 86.2656 74.2397 85.7852 74.2397C85.0469 74.2397 84.4258 74.0933 83.9219 73.8003C83.4297 73.519 83.1836 73.1382 83.1836 72.6577C83.1836 70.3491 83.1367 66.6636 83.043 61.6011C82.9492 56.5386 82.9023 52.8647 82.9023 50.5796C82.9023 50.2866 83.125 50.064 83.5703 49.9116C84.0156 49.7593 84.4902 49.6831 84.9941 49.6831C85.7324 49.6831 86.3594 49.7944 86.875 50.0171C87.3906 50.228 87.6484 50.5503 87.6484 50.9839C87.6484 54.9917 87.6602 57.7515 87.6836 59.2632C88.6211 58.8765 89.6641 57.8804 90.8125 56.2749C91.9727 54.6694 92.9688 53.1694 93.8008 51.7749C94.6445 50.3804 95.1777 49.6831 95.4004 49.6831C96.3145 49.6831 97.1113 49.9526 97.791 50.4917C98.4707 51.0308 98.8105 51.5171 98.8105 51.9507C98.8105 52.6421 97.8789 54.0776 96.0156 56.2573C94.1641 58.4253 92.2305 60.0483 90.2148 61.1265C92.0195 62.228 94.0234 64.1851 96.2266 66.9976C98.4297 69.8101 99.5312 71.6147 99.5312 72.4116C99.5312 72.7515 99.0684 73.1382 98.1426 73.5718C97.2168 74.0171 96.3965 74.2397 95.6816 74.2397Z" fill="#24214E"/>
<defs>
<filter id="filter0_d_3580_341" x="0.414062" y="0.694092" width="306.748" height="175.252" filterUnits="userSpaceOnUse" color-interpolation-filters="sRGB">
<feFlood flood-opacity="0" result="BackgroundImageFix"/>
<feColorMatrix in="SourceAlpha" type="matrix" values="0 0 0 0 0 0 0 0 0 0 0 0 0 0 0 0 0 0 127 0" result="hardAlpha"/>
<feOffset dy="4"/>
<feGaussianBlur stdDeviation="10"/>
<feComposite in2="hardAlpha" operator="out"/>
<feColorMatrix type="matrix" values="0 0 0 0 0 0 0 0 0 0 0 0 0 0 0 0 0 0 0.25 0"/>
<feBlend mode="normal" in2="BackgroundImageFix" result="effect1_dropShadow_3580_341"/>
<feBlend mode="normal" in="SourceGraphic" in2="effect1_dropShadow_3580_341" result="shape"/>
</filter>
</defs>
</svg>
