<?xml version="1.0" encoding="UTF-8"?>
<svg id="Ebene_1" xmlns="http://www.w3.org/2000/svg" version="1.1" viewBox="0 0 16 16">
  <!-- Generator: Adobe Illustrator 29.5.1, SVG Export Plug-In . SVG Version: 2.1.0 Build 141)  -->
  <defs>
    <style>
      .st0 {
        fill: #fff;
        fill-rule: evenodd;
      }
    </style>
  </defs>
  <path class="st0" d="M8.1,9.4l5.7,5.7c.2.2.4.3.7.3.3,0,.5-.1.7-.3s.3-.4.3-.7c0-.3,0-.5-.3-.7l-5.7-5.7,5.7-5.7c.2-.2.3-.4.3-.7,0-.3-.1-.5-.3-.7-.2-.2-.4-.3-.7-.3-.3,0-.5,0-.7.3l-5.7,5.7L2.5.9c-.2-.2-.4-.3-.7-.3-.3,0-.5.1-.7.3-.2.2-.3.4-.3.7,0,.3,0,.5.3.7l5.7,5.7L1,13.7c0,0-.2.2-.2.3,0,.1,0,.3,0,.4s0,.3,0,.4c0,.1.1.2.2.3,0,0,.2.2.3.2.1,0,.3,0,.4,0,.1,0,.3,0,.4,0,.1,0,.2-.1.3-.2l5.7-5.7Z"/>
</svg>