<svg width="16" height="16" viewBox="0 0 16 16" fill="none" xmlns="http://www.w3.org/2000/svg">
<path fill-rule="evenodd" clip-rule="evenodd" d="M8.11457 9.4208L13.7716 15.0778C13.9602 15.26 14.2128 15.3608 14.475 15.3585C14.7372 15.3562 14.988 15.251 15.1734 15.0656C15.3588 14.8802 15.464 14.6294 15.4662 14.3672C15.4685 14.105 15.3677 13.8524 15.1856 13.6638L9.52857 8.0068L15.1856 2.3498C15.3677 2.1612 15.4685 1.9086 15.4662 1.6464C15.464 1.3842 15.3588 1.13339 15.1734 0.947984C14.988 0.762576 14.7372 0.657407 14.475 0.655128C14.2128 0.65285 13.9602 0.753644 13.7716 0.935802L8.11457 6.5928L2.45757 0.935802C2.26812 0.758147 2.01698 0.661168 1.7573 0.665384C1.49762 0.669601 1.24976 0.774684 1.06618 0.958396C0.882596 1.14211 0.777689 1.39004 0.773656 1.64972C0.769623 1.90941 0.86678 2.16048 1.04457 2.3498L6.70057 8.0068L1.04357 13.6638C0.948059 13.756 0.871877 13.8664 0.819468 13.9884C0.767059 14.1104 0.739473 14.2416 0.738319 14.3744C0.737165 14.5072 0.762467 14.6389 0.812748 14.7618C0.863028 14.8847 0.937282 14.9963 1.03117 15.0902C1.12507 15.1841 1.23672 15.2583 1.35962 15.3086C1.48251 15.3589 1.61419 15.3842 1.74697 15.3831C1.87975 15.3819 2.01097 15.3543 2.13297 15.3019C2.25498 15.2495 2.36532 15.1733 2.45757 15.0778L8.11457 9.4208Z" fill="#170056"/>
</svg>
