<svg width="28" height="27" viewBox="0 0 28 27" fill="none" xmlns="http://www.w3.org/2000/svg">
<path d="M3.05497 26.3191H16.1335C16.918 26.3191 17.6932 26.1493 18.4059 25.8215C19.1185 25.4936 19.7519 25.0155 20.2624 24.4199L27.1986 16.328C27.3439 16.1589 27.4453 15.9566 27.4939 15.739C27.5426 15.5214 27.537 15.2952 27.4776 15.0803C27.4183 14.8654 27.3069 14.6684 27.1535 14.5067C27.0001 14.3449 26.8092 14.2234 26.5977 14.1528L23.9222 13.2609C23.2756 13.0504 22.587 13.0026 21.9175 13.1219C21.2481 13.2412 20.6184 13.5239 20.0843 13.9448L15.7542 17.4075L14.9154 15.7285C14.466 14.8234 13.7722 14.0623 12.9125 13.5313C12.0527 13.0002 11.0615 12.7206 10.051 12.7239H3.05497C1.55542 12.7239 0.335938 13.9434 0.335938 15.443V23.6001C0.335938 25.0996 1.55542 26.3191 3.05497 26.3191ZM3.05497 15.443H10.051C11.0884 15.443 12.0196 16.018 12.4832 16.9452L13.0909 18.162H7.13352V20.881H15.3096C15.5188 20.8781 15.7244 20.8269 15.9106 20.7315L15.9146 20.7301L15.9201 20.7274H15.9241L15.9269 20.726H15.9323L15.9337 20.7247C15.9459 20.7288 15.9377 20.7233 15.9377 20.7233C15.9513 20.7233 15.9405 20.722 15.9405 20.722H15.9418L15.9445 20.7206L15.9486 20.7193L15.9513 20.7179L15.9541 20.7165L15.9581 20.7152L15.9609 20.7138C15.9649 20.7138 15.9622 20.7125 15.9636 20.7125L15.9677 20.7097L15.9704 20.7084L15.9731 20.707L15.9772 20.7057L15.9799 20.7043H15.9812L15.984 20.7029L15.988 20.7016L15.9908 20.7002C16.003 20.6989 15.9948 20.6989 15.9948 20.6989L15.9976 20.6975C16.0497 20.6656 16.0997 20.6301 16.1471 20.5915L21.7837 16.0819C22.1399 15.7992 22.6306 15.7108 23.0616 15.8549L23.8189 16.1078L18.2 22.6647C17.9415 22.9581 17.6235 23.1933 17.2673 23.3545C16.911 23.5158 16.5246 23.5995 16.1335 23.6001H3.05497V15.443ZM19.3692 0.488291H19.3461C19.1245 0.49101 17.9784 0.541312 16.6501 1.44675C15.3572 0.565784 14.2383 0.495089 13.9746 0.489651L13.9338 0.488291H13.9284C12.8394 0.488291 11.8143 0.91382 11.0476 1.68195C10.2781 2.45279 9.85255 3.47651 9.85255 4.56684C9.85255 5.65717 10.2781 6.68089 11.0231 7.42726L15.6645 12.3025C15.7922 12.4351 15.9453 12.5405 16.1147 12.6124C16.2842 12.6844 16.4664 12.7214 16.6504 12.7213C16.8345 12.7212 17.0166 12.6839 17.1859 12.6117C17.3553 12.5395 17.5083 12.4339 17.6358 12.3011L22.2527 7.45037C23.0235 6.68089 23.4477 5.65717 23.4477 4.56684C23.4477 3.47651 23.0222 2.45279 22.2541 1.68331C21.8765 1.3035 21.4273 1.00233 20.9326 0.797214C20.4379 0.592094 19.9074 0.487095 19.3719 0.488291H19.3692ZM20.7287 4.56684C20.7287 4.92983 20.5873 5.27107 20.3059 5.55249L16.6501 9.39312L12.9699 5.52802C12.713 5.27107 12.5716 4.92983 12.5716 4.56684C12.5716 4.20385 12.713 3.86261 12.9713 3.6043C13.2174 3.3546 13.552 3.21197 13.9025 3.20732C13.9365 3.20868 14.585 3.25083 15.3532 3.86669C15.4628 3.95551 15.5748 4.05611 15.689 4.1685L16.6501 5.12968L17.6113 4.1685C17.7255 4.05611 17.8374 3.95551 17.9471 3.86669C18.6663 3.28889 19.274 3.21684 19.3773 3.20868C19.7348 3.21055 20.0772 3.35317 20.3303 3.60566C20.5873 3.86261 20.7287 4.20385 20.7287 4.56684Z" fill="#8D8CA3"/>
</svg>
