<svg width="20" height="20" viewBox="0 0 20 20" fill="none" xmlns="http://www.w3.org/2000/svg">
<path fill-rule="evenodd" clip-rule="evenodd" d="M9.18678 0.706543C7.83137 0.706658 6.49564 1.03091 5.29103 1.65224C4.08643 2.27357 3.04787 3.17396 2.26201 4.2783C1.47616 5.38263 0.965787 6.65889 0.773485 8.00059C0.581184 9.34228 0.712526 10.7105 1.15656 11.9911C1.60058 13.2717 2.34442 14.4276 3.32601 15.3623C4.3076 16.2969 5.49848 16.9833 6.79929 17.3641C8.1001 17.745 9.47312 17.8092 10.8038 17.5515C12.1345 17.2937 13.3842 16.7215 14.4488 15.8825L18.1008 19.5345C18.2894 19.7167 18.542 19.8175 18.8042 19.8152C19.0664 19.8129 19.3172 19.7078 19.5026 19.5224C19.688 19.337 19.7932 19.0861 19.7955 18.8239C19.7977 18.5617 19.6969 18.3091 19.5148 18.1205L15.8628 14.4685C16.8508 13.2152 17.4659 11.7089 17.6379 10.1223C17.8098 8.53559 17.5316 6.93256 16.835 5.49664C16.1384 4.06071 15.0517 2.8499 13.6991 2.00277C12.3465 1.15565 10.7827 0.706436 9.18678 0.706543ZM2.68678 9.20654C2.68678 7.48264 3.3716 5.82934 4.59058 4.61035C5.80957 3.39136 7.46287 2.70654 9.18678 2.70654C10.9107 2.70654 12.564 3.39136 13.783 4.61035C15.002 5.82934 15.6868 7.48264 15.6868 9.20654C15.6868 10.9305 15.002 12.5838 13.783 13.8027C12.564 15.0217 10.9107 15.7065 9.18678 15.7065C7.46287 15.7065 5.80957 15.0217 4.59058 13.8027C3.3716 12.5838 2.68678 10.9305 2.68678 9.20654Z" fill="#24214E"/>
</svg>
