<svg width="592" height="479" viewBox="0 0 592 479" fill="none" xmlns="http://www.w3.org/2000/svg">
<circle cx="476.739" cy="315.398" r="114.872" fill="#4ABED3"/>
<rect x="138.335" y="63.5752" width="98.9737" height="98.9737" transform="rotate(-14.3307 138.335 63.5752)" fill="#F5AA00"/>
<g filter="url(#filter0_d_3752_61)">
<path d="M182.468 99.1617C250.41 85.2916 285.017 142.683 296.714 143.657C314.02 145.145 317.052 123.563 335.806 105.172C418.989 23.8706 558.367 117.134 487.966 252.015C467.799 290.604 367.798 405.057 334.53 448.219C286.058 407.558 159.816 320.343 129.123 272.988C77.8186 193.919 115.084 112.971 182.468 99.1617Z" fill="#DB007E"/>
</g>
<path d="M54.008 247.117C42.0403 247.315 38.3491 258.278 36.4143 258.879C33.5533 259.775 32.237 256.251 28.3903 253.851C11.3382 243.253 -8.67161 264.171 8.22547 284.276C13.0639 290.027 34.1871 305.584 41.4042 311.617C48.0561 302.956 66.0777 283.548 69.4836 274.422C75.1799 259.182 65.8795 246.93 54.008 247.117Z" fill="#DB007E"/>
<path d="M550.669 20.5022C540.041 14.9966 531.589 22.895 529.601 22.5056C526.657 21.9369 527.171 18.2103 524.924 14.2724C514.944 -3.14859 487.404 5.76793 492.736 31.4834C494.266 38.8416 505.476 62.5602 508.966 71.2952C518.931 66.8283 544.004 58.297 551.333 51.8805C563.579 41.1694 561.207 25.9715 550.669 20.5022Z" fill="#DB007E"/>
<path d="M451.527 32.7037C445.344 32.5747 443.227 38.1642 442.216 38.437C440.722 38.8447 440.11 36.9997 438.17 35.6864C429.57 29.8853 418.835 40.2998 427.171 51.0066C429.559 54.0694 440.165 62.5098 443.775 65.7639C447.377 61.4202 457.056 51.7468 458.991 47.1005C462.226 39.3417 457.66 32.8363 451.527 32.7037Z" fill="#DB007E"/>
<defs>
<filter id="filter0_d_3752_61" x="95.1602" y="64.8203" width="442.04" height="413.398" filterUnits="userSpaceOnUse" color-interpolation-filters="sRGB">
<feFlood flood-opacity="0" result="BackgroundImageFix"/>
<feColorMatrix in="SourceAlpha" type="matrix" values="0 0 0 0 0 0 0 0 0 0 0 0 0 0 0 0 0 0 127 0" result="hardAlpha"/>
<feOffset dx="10" dy="10"/>
<feGaussianBlur stdDeviation="10"/>
<feComposite in2="hardAlpha" operator="out"/>
<feColorMatrix type="matrix" values="0 0 0 0 0.0901961 0 0 0 0 0 0 0 0 0 0.337255 0 0 0 0.2 0"/>
<feBlend mode="normal" in2="BackgroundImageFix" result="effect1_dropShadow_3752_61"/>
<feBlend mode="normal" in="SourceGraphic" in2="effect1_dropShadow_3752_61" result="shape"/>
</filter>
</defs>
</svg>
