<svg width="144" height="142" viewBox="0 0 144 142" fill="none" xmlns="http://www.w3.org/2000/svg">
<rect x="93.9004" y="97.0978" width="16.3857" height="15.401" transform="rotate(78.9982 93.9004 97.0978)" fill="#8456BA"/>
<circle cx="109.652" cy="63.7523" r="25.525" fill="#4ABED3"/>
<rect x="31.5645" y="26.1206" width="21.9925" height="21.9925" transform="rotate(-14.3307 31.5645 26.1206)" fill="#F5AA00"/>
<g filter="url(#filter0_d_2393_1053)">
<path d="M41.3682 34.0281C56.4651 30.9461 64.1551 43.6987 66.7541 43.9153C70.5996 44.2459 71.2733 39.4502 75.4405 35.3636C93.9242 17.298 124.895 38.0217 109.251 67.9929C104.77 76.5676 82.5494 102 75.157 111.59C64.3862 102.555 36.3347 83.1758 29.5146 72.6533C18.1144 55.0836 26.3949 37.0966 41.3682 34.0281Z" fill="#DB007E"/>
</g>
<path d="M12.826 66.9046C10.1667 66.9484 9.34651 69.3845 8.91658 69.518C8.28084 69.7172 7.98837 68.9341 7.1336 68.4009C3.34454 66.0459 -1.10174 70.6939 2.65288 75.1613C3.72799 76.4392 8.42168 79.8962 10.0253 81.2368C11.5035 79.3122 15.5079 74.9996 16.2647 72.9718C17.5305 69.5855 15.4639 66.8631 12.826 66.9046Z" fill="#DB007E"/>
<path d="M103.757 5.38812C101.395 4.16473 99.517 5.91981 99.0752 5.83327C98.4211 5.70691 98.5353 4.87883 98.0359 4.00382C95.8183 0.132787 89.6988 2.11408 90.8837 7.82818C91.2236 9.46323 93.7145 14.7336 94.4899 16.6746C96.7043 15.682 102.276 13.7863 103.904 12.3605C106.625 9.98048 106.098 6.60343 103.757 5.38812Z" fill="#DB007E"/>
<path d="M83.2129 12.1281C81.839 12.0994 81.3685 13.3415 81.1439 13.4021C80.8119 13.4927 80.6759 13.0827 80.2449 12.7909C78.3339 11.5018 75.9485 13.816 77.8009 16.1951C78.3314 16.8757 80.6882 18.7512 81.4904 19.4743C82.2907 18.5091 84.4415 16.3596 84.8714 15.3272C85.5903 13.6031 84.5758 12.1576 83.2129 12.1281Z" fill="#DB007E"/>
<path d="M115.478 111.422C112.995 107.748 108.846 108.82 108.268 108.341C107.411 107.635 108.238 106.513 108.204 104.834C108.043 97.3971 97.5022 95.4196 94.6816 104.732C93.8758 107.397 93.3216 117.101 92.9097 120.562C96.9437 120.874 106.614 122.54 110.135 121.75C116.018 120.434 117.938 115.069 115.478 111.422Z" fill="#DB007E"/>
<path d="M45.3564 79.7487L50.9619 115.175L17.4795 102.316L45.3564 79.7487Z" fill="#08A4A3"/>
<defs>
<filter id="filter0_d_2393_1053" x="14.1895" y="18.6194" width="129.336" height="122.971" filterUnits="userSpaceOnUse" color-interpolation-filters="sRGB">
<feFlood flood-opacity="0" result="BackgroundImageFix"/>
<feColorMatrix in="SourceAlpha" type="matrix" values="0 0 0 0 0 0 0 0 0 0 0 0 0 0 0 0 0 0 127 0" result="hardAlpha"/>
<feOffset dx="10" dy="10"/>
<feGaussianBlur stdDeviation="10"/>
<feComposite in2="hardAlpha" operator="out"/>
<feColorMatrix type="matrix" values="0 0 0 0 0.0901961 0 0 0 0 0 0 0 0 0 0.337255 0 0 0 0.2 0"/>
<feBlend mode="normal" in2="BackgroundImageFix" result="effect1_dropShadow_2393_1053"/>
<feBlend mode="normal" in="SourceGraphic" in2="effect1_dropShadow_2393_1053" result="shape"/>
</filter>
</defs>
</svg>
