<svg width="601" height="293" viewBox="0 0 601 293" fill="none" xmlns="http://www.w3.org/2000/svg">
<path fill-rule="evenodd" clip-rule="evenodd" d="M240.991 124.655C181.965 165.795 187.501 221.974 279.082 254.656C415.124 303.204 467.918 233.594 435.5 118.845C409.79 27.8419 550.254 -33.0139 601 50.0263V20C601 8.9543 592.046 0 581 0H153.131C255.003 12.2672 354.913 45.2541 240.991 124.655Z" fill="#004AA0"/>
<path d="M115.294 117.945C103.601 133.716 87.8755 142.781 70.277 132.303C52.6785 121.825 47.8907 100.547 59.5833 84.7763C71.2758 69.006 108.842 52.2283 126.44 62.7061C144.039 73.184 126.986 102.175 115.294 117.945Z" fill="#004AA0"/>
</svg>
