<svg width="231" height="223" viewBox="0 0 231 223" fill="none" xmlns="http://www.w3.org/2000/svg">
<rect x="160.15" y="165.428" width="28.0846" height="26.3968" transform="rotate(78.9982 160.15 165.428)" fill="#00387A"/>
<circle cx="187.148" cy="108.275" r="43.7492" fill="#00387A"/>
<rect x="53.3066" y="43.7754" width="37.6944" height="37.6944" transform="rotate(-14.3307 53.3066 43.7754)" fill="#005F95"/>
<g filter="url(#filter0_d_2697_85)">
<path d="M70.1132 57.3288C95.989 52.0463 109.169 73.9038 113.624 74.275C120.215 74.8418 121.37 66.6221 128.512 59.6177C160.193 28.6539 213.275 64.1736 186.463 115.543C178.782 130.24 140.697 173.83 128.026 190.268C109.565 174.782 61.486 141.566 49.7966 123.531C30.2571 93.4173 44.4495 62.588 70.1132 57.3288Z" fill="#119DCA"/>
</g>
<path d="M21.1882 113.678C16.6303 113.753 15.2245 117.928 14.4876 118.157C13.398 118.499 12.8967 117.156 11.4317 116.242C4.93733 112.206 -2.68346 120.173 3.75184 127.83C5.59456 130.02 13.6394 135.945 16.388 138.243C18.9215 134.944 25.785 127.552 27.0821 124.077C29.2516 118.273 25.7095 113.607 21.1882 113.678Z" fill="#00387A"/>
<path d="M177.045 8.24045C172.998 6.14361 169.779 9.15176 169.021 9.00342C167.9 8.78685 168.096 7.36755 167.24 5.8678C163.439 -0.767029 152.951 2.62885 154.981 12.4226C155.564 15.2251 159.833 24.2583 161.162 27.5851C164.958 25.8839 174.507 22.6347 177.298 20.191C181.962 16.1116 181.059 10.3235 177.045 8.24045Z" fill="#005F95"/>
<path d="M141.833 19.7927C139.478 19.7436 138.672 21.8724 138.287 21.9763C137.718 22.1315 137.485 21.4288 136.746 20.9287C133.47 18.7193 129.382 22.6857 132.557 26.7634C133.466 27.9299 137.506 31.1444 138.881 32.3838C140.252 30.7295 143.939 27.0453 144.676 25.2758C145.908 22.3208 144.169 19.8432 141.833 19.7927Z" fill="#005F95"/>
<path d="M76.9434 135.692L86.5509 196.411L29.1632 174.372L76.9434 135.692Z" fill="#4ABED3"/>
<path d="M197.137 189.979C192.881 183.681 185.769 185.52 184.779 184.699C183.309 183.488 184.728 181.566 184.67 178.687C184.394 165.941 166.327 162.552 161.492 178.513C160.111 183.081 159.161 199.713 158.455 205.644C165.369 206.179 181.944 209.034 187.979 207.681C198.062 205.426 201.353 196.229 197.137 189.979Z" fill="#005F95"/>
<defs>
<filter id="filter0_d_2697_85" x="30.6699" y="38.0583" width="193.119" height="182.21" filterUnits="userSpaceOnUse" color-interpolation-filters="sRGB">
<feFlood flood-opacity="0" result="BackgroundImageFix"/>
<feColorMatrix in="SourceAlpha" type="matrix" values="0 0 0 0 0 0 0 0 0 0 0 0 0 0 0 0 0 0 127 0" result="hardAlpha"/>
<feOffset dx="10" dy="10"/>
<feGaussianBlur stdDeviation="10"/>
<feComposite in2="hardAlpha" operator="out"/>
<feColorMatrix type="matrix" values="0 0 0 0 0.0901961 0 0 0 0 0 0 0 0 0 0.337255 0 0 0 0.2 0"/>
<feBlend mode="normal" in2="BackgroundImageFix" result="effect1_dropShadow_2697_85"/>
<feBlend mode="normal" in="SourceGraphic" in2="effect1_dropShadow_2697_85" result="shape"/>
</filter>
</defs>
</svg>
