<svg width="60" height="53" viewBox="0 0 60 53" fill="none" xmlns="http://www.w3.org/2000/svg">
<path d="M16.6885 2.5H16.7061C19.3356 2.48184 21.9151 3.30714 24.1006 4.875L24.5322 5.19824L24.5371 5.20215C25.7846 6.17247 26.8968 7.32872 27.8369 8.6377L29.8672 11.4648L31.8975 8.6377C32.7203 7.49223 33.6748 6.46367 34.7363 5.57422L35.1973 5.20215L35.2021 5.19824C37.4768 3.42023 40.2262 2.48007 43.0322 2.5H43.0498C46.9713 2.5 50.5482 4.05666 53.1602 6.87988V6.88086C55.7508 9.68734 57.2343 13.5787 57.2344 17.9043C57.2344 22.2176 55.6532 26.2821 51.8896 30.8174C48.8685 34.4476 44.6607 38.1688 39.5869 42.498L37.3604 44.3926L37.3584 44.3945C35.3074 46.141 32.9671 48.1297 30.5342 50.2451C30.3569 50.3977 30.1552 50.4785 29.957 50.4961L29.8721 50.5H29.8672C29.6559 50.5 29.4476 50.4338 29.2695 50.3047L29.1953 50.2451C27.9816 49.1878 26.7899 48.1622 25.6455 47.1826L22.376 44.3945L22.374 44.3926L20.1465 42.498C15.434 38.4777 11.4686 34.9834 8.51465 31.5996L7.85156 30.8203L7.84961 30.8184L7.50293 30.3945C3.98494 26.0334 2.5 22.0795 2.5 17.9043C2.50007 13.7124 3.88858 9.9312 6.33594 7.14941L6.57617 6.88281L6.5791 6.88086C9.18554 4.05844 12.761 2.5001 16.6885 2.5Z" fill="#DD3333" stroke="#170056" stroke-width="5"/>
</svg>
